<?xml version="1.0" encoding="UTF-8"?>
<!DOCTYPE svg PUBLIC "-//W3C//DTD SVG 1.1//EN" "http://www.w3.org/Graphics/SVG/1.1/DTD/svg11.dtd">
<svg enable-background="new 0 0 689.965 467.977" viewBox="0 0 689.965 467.977" xml:space="preserve" xmlns="http://www.w3.org/2000/svg"><defs><linearGradient gradientUnits="userSpaceOnUse" id="XMLID_18_" x1="546.0601" x2="562.0602" y1="195.1948" y2="158.1943">
		<stop offset="0" stop-color="#00a0c6"></stop>
		<stop offset="1" stop-color="#0a0a9e"></stop>
	</linearGradient><linearGradient gradientUnits="userSpaceOnUse" id="XMLID_20_" x2="0" y1="203.5835" y2="189.5839">
		<stop offset="0" stop-color="#3696c6"></stop>
		<stop offset="1" stop-color="#0a0a9e"></stop>
	</linearGradient><linearGradient gradientUnits="userSpaceOnUse" id="XMLID_21_" x1="469.1704" x2="462.1705" y1="251.5322" y2="265.532">
		<stop offset="0" stop-color="#3696c6"></stop>
		<stop offset="1" stop-color="#080856"></stop>
	</linearGradient><linearGradient gradientUnits="userSpaceOnUse" id="XMLID_23_" x1="607.11821" x2="614.21536" y1="192.90042" y2="186.53431">
		<stop offset="0" stop-color="#bf0000"></stop>
		<stop offset="1" stop-color="#0a0a9e"></stop>
	</linearGradient><linearGradient gradientUnits="userSpaceOnUse" id="XMLID_24_" x1="618.99776" x2="628.05964" y1="210.97781" y2="208.01143">
		<stop offset="0" stop-color="#bf0000"></stop>
		<stop offset="1" stop-color="#0a0a9e"></stop>
	</linearGradient><linearGradient gradientUnits="userSpaceOnUse" id="XMLID_27_" x1="193.9712" x2="209.9713" y1="182.0947" y2="145.0946">
		<stop offset="0" stop-color="#00a0c6"></stop>
		<stop offset="1" stop-color="#0a0a9e"></stop>
	</linearGradient><linearGradient gradientUnits="userSpaceOnUse" id="XMLID_29_" x2="0" y1="190.4839" y2="176.4843">
		<stop offset="0" stop-color="#3696c6"></stop>
		<stop offset="1" stop-color="#0a0a9e"></stop>
	</linearGradient><linearGradient gradientUnits="userSpaceOnUse" id="XMLID_30_" x1="117.0806" x2="110.0806" y1="238.4321" y2="252.4321">
		<stop offset="0" stop-color="#3696c6"></stop>
		<stop offset="1" stop-color="#080856"></stop>
	</linearGradient><linearGradient gradientUnits="userSpaceOnUse" id="XMLID_32_" x1="255.02859" x2="262.12574" y1="179.80044" y2="173.43433">
		<stop offset="0" stop-color="#bf0000"></stop>
		<stop offset="1" stop-color="#0a0a9e"></stop>
	</linearGradient><linearGradient gradientUnits="userSpaceOnUse" id="XMLID_33_" x1="266.90922" x2="275.97013" y1="197.87864" y2="194.91252">
		<stop offset="0" stop-color="#bf0000"></stop>
		<stop offset="1" stop-color="#0a0a9e"></stop>
	</linearGradient><radialGradient cx="527.6509" cy="233.0835" gradientUnits="userSpaceOnUse" id="XMLID_19_" r="52.4976">
		<stop offset="0" stop-color="#95edfc"></stop>
		<stop offset="1" stop-color="#0060b6"></stop>
	</radialGradient><radialGradient cx="587.7847" cy="301.4214" gradientUnits="userSpaceOnUse" id="XMLID_22_" r="89.8363">
		<stop offset="0" stop-color="#ff7f00"></stop>
		<stop offset=".278" stop-color="#fe7c00"></stop>
		<stop offset=".4487" stop-color="#f97400"></stop>
		<stop offset=".5905" stop-color="#f26600"></stop>
		<stop offset=".7165" stop-color="#e85100"></stop>
		<stop offset=".832" stop-color="#da3700"></stop>
		<stop offset=".9383" stop-color="#ca1600"></stop>
		<stop offset="1" stop-color="#bf0000"></stop>
	</radialGradient><radialGradient cx="491.772" cy="113.5835" gradientUnits="userSpaceOnUse" id="XMLID_25_" r="91.7829">
		<stop offset="0" stop-color="#ffbf00"></stop>
		<stop offset="1" stop-color="#bf0000"></stop>
	</radialGradient><radialGradient cx="194.5498" cy="298.9819" gradientUnits="userSpaceOnUse" id="XMLID_26_" r="78.6763">
		<stop offset="0" stop-color="#95edfc"></stop>
		<stop offset="1" stop-color="#0060b6"></stop>
	</radialGradient><radialGradient cx="139.8384" cy="219.9839" gradientUnits="userSpaceOnUse" id="XMLID_28_" r="50.6337">
		<stop offset="0" stop-color="#95edfc"></stop>
		<stop offset="1" stop-color="#0060b6"></stop>
	</radialGradient><radialGradient cx="241.9497" cy="292.269" gradientUnits="userSpaceOnUse" id="XMLID_31_" r="101.6196">
		<stop offset="0" stop-color="#ffbf00"></stop>
		<stop offset="1" stop-color="#bf0000"></stop>
	</radialGradient><radialGradient cx="139.6831" cy="100.4839" gradientUnits="userSpaceOnUse" id="XMLID_34_" r="91.7826">
		<stop offset="0" stop-color="#ffbf00"></stop>
		<stop offset="1" stop-color="#bf0000"></stop>
	</radialGradient></defs>
<path d="m0,0h689.965v467.977h-689.965z" fill="#fff"></path>

	<path d="m626.095,132.54c5.959-1.439 13.195-.646 18.672-2.622-.754-1.946-2.471-3.686-3.863-5.156 5.842,2.376 11.58,5.326 17.123,7.907-1.469,3.007-7.143,5.895-9.98,8.304-.205-1.861-1.4-3.531-2.803-5.033-.434-.465-17.313,3.768-19.588,3.732 1.153-2.163 1.768-6.33-.894-7.799" fill="#f00" stroke="#000"></path>
	<path d="m498.547,113.105c-5.183.069-10.44-1.663-15.542-1.971 .508.878 1.843,3.591 2.854,3.987-4.887-1.918-11.863-5.396-14.895-9.781 4.818-2.408 11.048-2.447 16.229-4.717-1.392,2.019-3.941,3.048-5.041,5.148 6.518-.078 12.444,1.01 19.041.068-2.436,1.745-5.125,4.514-2.646,7.266z" fill="#f00" stroke="#000"></path>
	<path d="m485.476,191.331c.074-3.646-4.289-5.367-7.155-6.232-4.171-1.261-7.626.578-11.85.039-2.933-.373-5.786-1.373-8.509-2.492-4.191-1.721-6.146-.289-8.445,3.714-2.696,4.698 3.424,8.214 7.254,9.778 2.424.989 4.381,1.447 7.002,1.445 1.473,0 2.998.143 4.445-.17 1.436-.311 2.771-1.394 4.244-1.297-2.346,2.857-5.892,2.444-9.164,3.197-3.35.77-6.674,1.69-9.889,2.91-3.149,1.195-5.785,3.143-8.867,4.416-1.128.465-2.835.825-3.611,1.887-.979,1.34-.68,4.02-.477,5.564 .272,2.074 1.193,5.26 3.568,5.803 .992.228 1.006.111 1.936-.32 2.568-1.189 4.605-3.584 7.371-4.29 2.609-.666 5.537-1.291 8.217-1.724 3.807-.613 9.096,1.236 11.717-1.998 2.59-3.197 5.211-7.172 7.332-10.732 1.476-2.476 4.819-6.458 4.881-9.498z" fill="#bf0000" stroke="#8f0000"></path>
	<path d="m518.273,105.083c-5.104-2.643-15.795-5.333-21.123-3.123-4.832,2.006-7.045,9.273-5.352,14.096 1.256,3.578 2.439,2.674 6.448,3.002 2.413.197 7.609,2.928 9.649,2.426 3.395-.834 9.27-12.155 9.877-15.9" fill="#0060b6" stroke="#003cff"></path>
	<path d="m577.646,361.591c5.375-1.213 10.656-3.885 13.121-9.062 8.445-17.728-12.1-34.536-21.668-46.006-7.166-8.588-12.798-16.861-14.244-28.218-1.389-10.917-.029-22.202 2.418-32.873 .721-3.145 10.678-34.913 6.574-35.935-.598-4.175 4.025-9.45 5.439-13.415 1.432-4.01 3.834-7.491 5.375-11.5 3.021-7.861 3.814-17.018-.764-24.123-5.492-8.518-20.364-6.236-28.039-1.851-13.191,7.538-16.93,20.423-21.71,33.56-3.216,8.838-6.022,17.817-8.72,26.825-2.034,6.787-5.139,11.668-7.627,17.904-2.703,6.772-.729,23.837-9.702,26.306-9.546,2.624-19.175,1.969-27.688,7.877-7.409,5.143-6.023,14.896-3.75,22.988 1.451,5.166 3.729,9.223 7.054,13.609 8.354,11.02 17.063,23.287 28.458,31.402 7.559,5.385 16.553,5.328 24.996,8.09 4.743,1.551 9.311,4.428 13.941,6.391 4.67,1.979 8.159,5.119 12.691,6.975 3.776,1.547 6.207,3.213 10.455,3.092 4.374-.122 9.144-1.077 13.39-2.036z" fill="#2280c6" stroke="#003cff"></path>
	
	<path d="m544.189,162.694-.342.357c-4.41,4.666-11.572,8.621-12.697,15.535-.874,5.375-2.24,16.574 3.734,19.898 3.992,2.221 7.568-1.588 10.862-.9 5.383,1.123 3.984,8.438 10.054,8.996 12.742,1.173 14.375-20.236 17.834-28.207 1.949-4.491 4.426-10.707 2.012-15.705-2.283-4.723-9.432-6.932-14.273-7.086-7.053-.224-12.558,2.37-17.184,7.112z" fill="url(#XMLID_18_)" stroke="#0060b6" stroke-width=".5"></path>
	
	<path d="m450.775,232.119c-.841,5.065-.978,11.787-3.93,16.11-2.43,3.561-4.881,4.689-4.861,9.648 .031,8.576 5.919,16.205 9.289,23.717 3.069,6.844 1.232,15.979 1.512,23.48 .709,19.145-.529,38.406-.512,57.566 .002,2.746-.381,5.211.84,7.543 2.18,4.166 10,7.281 14.236,8.045 9.715,1.75 24.32-.076 24.047-12.249-.234-10.309-4.193-17.797-2.518-27.991 8.627-3.731 18.673,8.221 27.102,10.064 3.493.764 7.383-.331 10.832.452 5.661,1.285 10.777,6.568 15.754,9.401 4.949,2.817 10.371,5.776 15.517,8.209 3.417,1.615 14.394,5.039 18.153,2.32 6.441-4.657-9.756-12.735-12.987-14.771-10.07-6.345-18.982-13.931-30.005-18.665-9.906-4.256-17.859-9.392-25.859-16.492-4.418-3.921-14.055-10.486-15.39-16.517-9.63-2.091-22.764-5.771-29.808-13.019-11.305-11.633 15.412-23.438 24.547-25.246 3.132-.62 13.104-.154 15.23-2.473 2.898-3.16 1.888-13.515 3.286-17.868 4.4-13.697 18.479-32.264 6.634-45.805-4.623-5.283-5.991-8.526-7.098-15-1.109-6.486-3.221-12.91-3.988-19.472-.594-5.069-.898-10.47-.552-15.647 .188-2.805 1.001-5.703 1.663-8.49 .564-2.379 2.404-6.168 2.484-8.389 .313-8.792-24.004-5.572-28.646-.023-2.079,2.484-1.283,4.197-.964,6.988 .645,5.621.221,10.629-.889,16.186-2.172,10.891-3.903,21.396-7.511,31.864-5.248,15.241-12.966,30.593-15.608,46.524z" fill="url(#XMLID_19_)" stroke="#003cff"></path>
	
	<path d="m486.765,203.162c6.811-1.476 11.983.958 18.443,2.231 .195.039-3.882-8.94-4.592-9.805-2.34-2.848-5.775-5.747-9.189-6.031-5.017-.418-18.754,8.777-17.579,16.431 4.561.661 8.596-1.889 12.917-2.826z" fill="url(#XMLID_20_)"></path>
	
	<path d="m467.36,253.897c-1.785-1.631-3.468-3.568-5.233-4.742-4.283-2.848-10.25-2.303-11.005,3.414-.579,4.391 2.264,9.518 4.78,12.907s4.455,2.569 7.894,1.106c2.557-1.087 4.691-1.977 7.478-2.637 2.277-.539 7.171-.25 8.998-1.438 9.045-5.886-7.066-5.362-8.996-6.023-1.397-.477-2.681-1.458-3.916-2.587z" fill="url(#XMLID_21_)"></path>
	
	<path d="m564.386,216.597c3.068-13.209 6.633-27.138 15.85-37.514 5.219-5.875 6.984-10.477 9.676-17.889 1.914-5.275 4.848-8.828 9.35-12.25 2.244-1.706 9.779-7.973 10.934-3.758 1.467,5.352-4.686,12.068-6.379,16.92-2.236,6.402 3.246,8.719 8.381,11.104-.498.587-.574,1.311-1.248,1.896 1.098-.952 7.145-2.484 8.875-3.113 3.297-1.198 5.943-.885 8.949,1.092 2.586,1.699 7.189,6.854 6.266,10.295-.982,3.662-17.602,9.916-8.641,15.605 3.807,2.416 7.377-1.642 10.887-2.525 4.207-1.059 6.5,1.49 7.875,5.999 1.695,5.563.41,6.093-3.768,8.224-5,2.552-12.633,6.719-11.799,13.285 1.054,8.294 7.805,13.44 10.416,20.935 2.543,7.306-.129,14.567-.742,21.878-.34,4.055-1.037,7.951-1.547,11.977-.477,3.752.809,7.512.307,11.197-.453,3.31-1.832,6.673-2.33,10.089-1.359,9.328-2.169,18.744-2.033,28.176 .147,10.203-2.569,23.064-12.586,28.316-21.512,11.279-34.168-35.914-39.904-48.576-3.52-7.765-7.635-15.015-10.875-22.938-2.014-4.923-4.373-9.793-5.563-14.994-1.814-7.922-3.931-15.975-4.689-24.088-.879-9.38 2.225-20.252 4.338-29.343z" fill="url(#XMLID_22_)" stroke="#8f0000"></path>
		
	<path d="m606.078,191.896c2.982,1.941 3.957,4.694 5.816,7.496 .057.086 1.852-4.621 1.91-5.188 .191-1.874.01-4.162-1.113-5.504-1.65-1.97-9.924-3.653-12.279-.478 1.398,1.892 3.773,2.441 5.666,3.674z" fill="url(#XMLID_23_)"></path>
		
	<path d="m618.451,209.64c1.947,2.979 1.73,5.891 2.303,9.205 .016.1 3.557-3.482 3.838-3.979 .932-1.638 1.688-3.805 1.201-5.486-.717-2.469-7.609-7.344-11.047-5.387 .517,2.297 2.47,3.756 3.705,5.647z" fill="url(#XMLID_24_)"></path>
	
	<path d="m543.247,157.581c-7.493,9.971-16.726,19.688-18.355,32.501-.595,4.681-.787,10.196-6.796,8.19-3.605-1.203-8.033-5.301-10.38-8.262-4.415-5.572-7.188-12.322-8.976-19.154-3.419-13.066-3.754-27.615-.604-40.775 4.501-18.801 13.985-38.014 28.14-51.498 4.492-4.279 8.285-6.619 7.605-13.361-.564-5.599-3.602-10.567-6.941-15.017 2.539-2.904 7.633-6.6 11.379-7.669 4.025-1.149 2.699-.601 4.045,2.841 3.906,9.994 8.123,18.097 17.396,24.03-1.821-1.363-3.153-3.13-4.333-4.871 7.074.492 12.904-3.414 17.236-8.563 1.734-2.063 4.146-4.568 5.51-6.889 .836-1.424.957-3.482 2.066-4.623 2.256-2.322 12.58-2.781 12.859,1.611 .119,1.861-5.988,6.883-6.76,9.174-1.65,4.903-.57,11.515-.563,16.653-.461-6.37 1.387-16.011 6.137-20.437 6.699-6.244 10.428,1.393 15.732,6.055-2.816-2.475-6.479,4.577-7.02,6.12-3.143,8.979 2.34,13.573 5.807,20.967 6.572,14.018 7.982,32.439 4.809,47.45 .436-2.056-8.234.153-9,.245-3.418.411-7.66-.656-10.938-1.617-4.035-1.184-9.166-1.935-12.662-4.279-3.184-2.135-4.914-5.803-8.072-8.008-10.049-7.02-18.507,2.441-21.821,11.674-1.851,5.156-.698,10.219.65,15.001 .825,2.928 1.402,2.44-.25,5.415-1.399,2.52-4.122,4.731-5.9,7.096z" fill="url(#XMLID_25_)" stroke="#8f0000"></path>
	
		<path d="m549.058,131.29c.518-1.881 1.322-3.756 2.377-5.746 .949-1.793 2.074-3.466 3.509-4.908 1.283-1.289 2.964-3.055 4.829-3.391 2.166-.389 5.387.916 7.439,1.608 4.516,1.522 8.742,4.335 13.672,4.22 4.383-.102 8.695,1.164 13,1.871 5.982.982 12.279.896 18.35.527 4.176-.254 8.285-1.167 12.473-1.32 2.012-.074 4.066-.014 6.027.488 1.672.428 3.232,2.215 4.32,3.587 4.451,5.618 3.332,14.735-2.783,18.87-2.877,1.943-5.371,1.207-8.674,1.449-5.156.378-11.18,1.371-16.213,2.637-8.938,2.246-14.271,6.904-18.127,14.775-2.883,5.891-7.34,12.011-11.883,16.623-.828-9.308 2.26-22.422-9.215-26.358-4.717-1.618-10.066-.64-14.824.28-4.447.858-9.384,1.819-12.83,4.992 .322-3.771 4.699-7.826 6.822-10.898 2.28-3.299 2.717-4.779 1.84-8.662-.81-3.587-1.1-7.048-.109-10.644z" fill="#0060b6"></path>
		<path d="m577.439,183.083c.746-2.904 4.324-5.482 6.008-7.874 2.252-3.197 4.174-6.292 5.951-9.792 3.34-6.57 8.395-10.563 15.209-13.037 1.936-.703 3.611-1.752 5.625-2.305 2.045-.563 4.115-.879 6.207-1.113 3.609-.402 7.225-.652 10.838-.915 1.605-.116 2.494.167 3.836-.716 1.201-.791 2.445-1.571 3.289-2.769 1.791-2.538 3.984-5.877 3.568-9.118-.316-2.467-1.313-4.549-2.518-6.68-.762-1.344-1.266-2.67-2.672-3.519-2.639-1.595-6.234-1.231-9.162-.954-4.221.399-8.455.787-12.684.967-2.363.101-4.744.193-7.113.163-2.58-.033-5.334.278-7.895-.122-3.137-.49-6.242-1.139-9.357-1.717-1.756-.324-3.529-.492-5.303-.707-1.648-.2-3.223-.818-4.863-.967-2.9-.262-4.867-1.505-7.59-2.284-1.41-.403-2.871-.63-4.234-1.166-1.508-.592-2.568-.86-4.307-.876" fill="none" stroke="#003cff"></path>
		<path d="m540.523,161.083c.822-1.27 1.037-2.463 1.987-3.676 1.505-1.92 2.507-4.129 3.949-6.086 1.385-1.878 3.618-4.191 3.313-6.738" fill="none" stroke="#003cff"></path>
	
	<path d="m559.125,152.583c4.223,0 8.584.891 12.279,2.996 2.299,1.311 3.926,3.523 5.201,5.789 2.145,3.804 3.055,8.617 3.049,12.943-.002,1.833.141,3.674-.053,5.502-.074.689-.449,1.588-.229,2.263s1.152,1.263 1.615,1.755c1.08,1.148 2.152,2.816 3.547,3.58-1.502-.822 1.311-6.485 1.824-7.465 1.178-2.253 3.846-4.508 6.092-5.604 3.357-1.635 7.23-1.707 10.795-1.04 2.285.429 4.072,1.411 6.158,2.381 1.797.835 3.113,2.379 4.713,3.48 2.676,1.845 4.617,5.189 6.703,7.651 2.605,3.074 5.811,5.919 7.625,9.577 .875,1.767 2.164,3.195 3.186,4.907 1.064,1.783 1.926,3.695 2.551,5.676 .75,2.381.58,5.154.342,7.617-.772,7.984 4.025,9.918 8.207,15.396 4.439,5.813 6.518,16.54 4.422,23.57-1.141,3.828-3.285,7.25-4.434,11.045-1.75,5.783-2.045,13.081-2.633,19.097-.893,9.157.309,18.247-.641,27.269-.568,5.387-2.609,10.488-3.438,15.932-1.082,7.118-2.57,14.201-5.094,20.962-2.93,7.845-1.493,18.556-8.016,24.771-3.137,2.99-6.393,5.121-10.697,5.594-5.938.652-11.961,2.452-17.963,1.822-6.914-.726-14.223-3.766-20.413-6.797-18.179-8.901-22.438-33.506-42.679-39.161-3.996-1.116-5.604-3.629-9.254-5.023-4.223-1.614-7.865-2.039-11.748-4.839-4.568-3.294-8.129-8.268-11.766-12.499-2.576-2.996-4.363-7.181-8.076-8.898-5.074-2.348-12.044-1.123-17.522-2.604-6.038-1.633-10.845-6.753-13.358-12.328-1.764-3.915-.836-11.634-5.545-13.401-11.104-4.17-11.95-18.92-12.001-20.119-.478-6.422 2.164-17.465 4.012-20.975 .271-.516.812-1.027.997-1.566 4.014-10.631 8.531-15.025 9.797-18.287 1.842-6.219 10.055-14.679 11.314-16.466 .803-1.14 1.678-2.04 2.536-3.128 1.8-2.279 3.698-4.811 5.669-6.906 2.325-2.475 4.63-5.152 7.697-6.719 2.757-1.408 6.141-2.203 9.283-1.85 2.803.316 5.67,1.641 7.744,3.5 2.78,2.492 4.79,5.691 7.342,8.397 1.104,1.171 2.345,2.142 3.373,3.345 1,1.171 2.455,1.635 3.595,2.616 .867.747 1.329,1.339 2.509,1.338 3.23-.001 4.229-3.63 4.816-6.181 .344-1.486.559-3.008 1.13-4.406 .749-1.833 1.269-3.777 1.931-5.645 .682-1.926 1.718-3.896 2.926-5.549 1.064-1.454 1.786-3.123 2.789-4.648 1.584-2.406 3.59-4.475 5.687-6.436 .966-.902 1.541-1.989 2.412-2.989 .997-1.146 2.132-2.163 3.207-3.233 1.769-1.76 3.508-3.412 5.741-4.518 1.457-.722 3.063-1.096 4.715-1.289 2.002-.232 4.071-.201 6.029-.202zm-52.883,42.635c-.868-1.197-1.34-2.71-2.47-3.662-.967-.813-5.174-4.762-6.229-5.935-.854-.95-1.22-1.706-2.633-1.886-1.595-.203-3.191.34-4.723.703-2.619.62-5.154,1.564-7.523,2.843-3.271,1.765-5.475,5.404-8.014,8.054-1.502,1.566-3.352,2.74-4.607,4.541-1,1.432-1.965,2.863-2.901,4.353-2.36,3.752-4.864,7.458-7.868,10.729-1.872,7.631-10.935,25.189-8.088,19.107 1.161-2.479-1.244,5.686-1.512,8.364-4.15,13.525 1.9,24.27 5.615,27.513 7.092,6.191 25.351-8.525 33.494-9.921 4.021-.689 15.818-.398 14.55,6.417-4.682.69-8.681-3.144-13.899-2.417-6.409.892-11.707,2.644-12.182,9.67-.342,5.055.761,11.918 6.368,13.552 4.337,1.264 9.772-1.068 14.196-.047 6.205,1.433 5.395,5.25 6.441,10.545 1.654,8.371 11.297,3.821 16.031,9.992 1.517,1.979 1.184,5.167 2.969,7.497 1.256,1.64 3.012,2.446 4.9,2.981 4.205,1.192 2.824-.127 5.692-2.03 7.282-4.831 11.476,6.569 15.919,11.524 2.872,3.205 5.533,6.347 9.396,8.535 3.811,2.159 4.867,1.899 5.602,6.344 .742,4.492.728,6.9 4.502,10.133 1.386,1.188 3.328,3.001 5.119,3.522 1.811.526 2.941-.244 4.367.545 2.326,1.288 3.617,5.61 7.063,3.958 2.93-1.404 1.521-4.633.309-7.049-1.596-3.174-2.414-2.603-4.869-3.986-1.931-1.088-1.822.209-3.111-2.006-.858-1.474-.192-3.378-.381-5.009-.988-8.543-7.85-16.771-11.738-24.144-1.145-2.168-2.111-4.373-3.139-6.6-.537-1.166-1.373-2.486-1.365-3.811 .007-1.337-.063-2.207-.529-3.553-1.416-4.1-3.41-8.073-4.959-12.133-4.982-13.051-8.464-28.289-6.137-42.277 1.105-6.645 4.304-12.649 7.261-18.617 2.533-5.109 5.854-11.2 3.852-17.103-1.444-4.257-5.761-6.767-7.758-10.733-.981-1.949-2.405-11.465 2.046-7.716 1.952,1.646-.961,8.335 4.816,7.915 4.323-.314 8.307-12.393 10.023-15.992 1.609-3.375 2.969-6.876 4.01-10.469 .639-2.213 1.385-4.581 1.225-6.903-.166-2.416-.377-5.528-1.369-7.749-.5-1.119-1.182-1.885-2.23-2.482-1.002-.57-1.727-1.334-2.738-1.871-1.924-1.02-3.826-1.775-6.012-1.973-3.189-.289-6.1-.616-9.154.373-2.898.939-5.8,2.064-8.18,3.928-2.006,1.572-3.146,3.994-4.811,5.912-1.811,2.086-3.78,4.205-5.838,6.037-3.338,2.972-5.96,11.957-4.498,16.248 2.041,5.995 6.493,5.765 8.338-.324 5.578-.499 2.84,6.396.406,8.524-4.861,4.25-12.016,2.428-12.993-3.951-.745-.041-1.144.356-1.499,1.009-2.006,3.676-1.208,7.945-2.146,11.846-3.916,16.258-18.1,32.434-17.215,49.788 .164,3.226 3.285,7.008 1.201,9.896-14.859-4.453.871-37.626 4.287-45.497 .947-2.185 1.929-4.234 2.631-6.529 .901-2.943 2.514-7.738.47-10.531-.837-1.145-2.167-2.016-3.321-2.928-.248-.192-3.296-3.461-4.46-5.064zm59.724,22.877c.057.583.135,1.169.234,1.757 4.113-1.283 4.83-6.415 6.014-9.86 .135-.394 1.494.012 1.646.087 1.526,3.224.31,6.222-1.598,8.995-3.08,4.482-9.905,7.821-10.932,13.556-.862,4.82 1.412,13.443 2.23,18.491 1.156,7.146 3.705,14.022 7,20.447 4.99,9.728 8.366,18.565 11.607,29.025 2.264,7.302 4.455,14.664 7.581,21.648 2.991,6.683 7.116,13.73 11.017,20 1.428,2.296 3.744,7.03 6.474,7.989 8.558,3.007 6.948-9.171 5.913-13.534-.447-1.882-2.885-5.996-1.898-8.002 1.104-2.245 2.975-.901 5.023-2.369 1.721-1.233 3.505-5.285 3.512-7.521 .012-3.534-2.742-4.295-4.033-7.169-1.655-3.68-.258-6.074 3.583-6.952 3.147-.719 2.604.901 4.534-1.417 1.016-1.221 1.714-4.325 1.426-5.946-1.037-5.845-11.354-2.851-9.457-10.025 .339-1.278 3.614-3.828 4.436-5.488 2.076-4.204 1.212-5.858.34-10.221-.719-3.587 1.027-5.034 1.559-8.353 .801-5.012-3.877-8.634-2.535-13.642 1.38-5.152 6.889-8.747 6.471-14.518-.561-7.734-9.775-8.204-14.519-3.696-2.124,2.018-5.892,16.401-9.358,11.176-2.813-4.239 3.66-15.081 7.346-17.196 2.648-1.52 5.709-.998 8.553-1.483 4.084-.697 9.502-2.323 10.854-6.539 .412-1.281.715-2.384.875-3.723 .281-2.348.432-4.468-.188-6.78-.527-1.967-1.994-3.375-3.199-4.938-1.336-1.733-1.512-3.666-2.557-5.511-2.371-4.176-7.611-10.717-11.678-13.344-1.711-1.104-3.713-1.277-4.971-2.832-1.061-1.311-2.551-2.068-4.197-2.357-3.17-.557-6.951.436-9.332,2.635-1.289,1.189-2.1,2.584-2.879,4.134-.615,1.226-1.529,2.429-1.978,3.728-4.841,13.992 9.761,24.597 13.882,36.194 1.078,3.035 1.032,22.591-3.86,15.853-3.202-4.408 1.866-11.952-.062-17.229-2.617-7.166-10.306-5.773-14.926-10.443-1.102-1.114-3.504-5.117-2.352-6.712 1.623-2.244 3.805,2.363 5.914,2.96 1.402-3.308-7.863-23.529-10.34-22.137-1.271.715-1.635,3.48-2.391,4.618-.943,1.417-1.74,2.915-2.607,4.39-.598,1.02-1.535,1.912-2.003,2.997-2.642,6.131-4.818,12.55-4.174,19.257z" fill="#e4bc96" stroke="#fff"></path>
	<path d="m536.762,201.17c4.929-10.706 8.935-21.124 15.095-31.207-2.502.821-5.5,1.984-8.285,2.989 5.982-3.076 12.146-8.145 18.473-10.172 2.588,3.434 3.888,11.971 3.246,16.304-1.275-2.241-2.9-5.573-5.697-6.4-3.465,11.599-7.008,23.396-9.598,35.31-1.375,6.325-2.568,12.688-3.85,19.033-.881,4.356-5.299,14.58-4.199,18.676-.805-2.996-2.007-8.43-5.365-5.207-3.105,2.979-2.245,16.36-1.869,20.232 1.471,15.144 9.426,35.49 19.344,46.389-8.662-.164-16.01-13.718-19.127-20.762-3.37-7.618-3.195-17.391-6.982-24.394-2.398,1.892-1.003,7.913-1.335,11.204 .316-3.136-2.735-8.765-2.933-12.396-.25-4.6.58-9.181.811-13.782 .743-14.843 6.049-32.302 12.271-45.817z" fill="#f00" stroke="#000"></path>
	<path d="m599.995,285.121c-6.778-.923-12.555-5.583-15.031-12.023-2.194-5.706-3.062-12.359-2.969-18.457-.723.094-1.734-.252-2.465-.204-.95-16.335 3.859-35.201-5.602-49.646-1.109,1.313-2.149,2.578-2.513,4.212-.258-3.363.915-6.496 1.445-9.693 2.99.112 6.911.736 9.049,3.132-1.781-.165-3.2.587-4.896.881 5.13,13.938 7.102,26.385 8.549,41.014 .627-1.528 1.866-2.849 2.717-4.261 3.796,5.233-.942,40.582 8.518,37.394 1.492,2.164 2.851,5.003 3.198,7.651z" fill="#f00" stroke="#000"></path>
	<path d="m518.583,130.704c1.727-6.864 4.433-13.482 8.197-19.564 2.244-3.623 7.611-7.534 8.561-11.15-2.474-.101-5.758.529-7.225-1.449 7.305-3.748 16.863-6.747 24.576-7.88-5.349,4.018-6.463,13.393-7.912,19.644-2.881-9.584-8.27-.307-10.521,4.223-3.751,7.544-7.016,16.35-6.377,24.781 .153,2.022 1.168,18.664 4.105,18.467-6.15.432-6.701,9.72-8.171,14.104-6.108-12.576-8.693-27.426-5.233-41.176z" fill="none" stroke="#000" stroke-dasharray="3" stroke-width="2"></path>


	<path d="m86.143,173.854c-2.35.163-.181-2.594.017-3.964 .042-.291-10.312-5.026-11.279-5.053 .687.019 1.977-4.78 2.665-5.432 1.534-1.451 1.074-.629 2.318.879 2.274,2.759 5.629,4.356 8.571,6.274 .674-1.339 1.011-2.99 1.981-4.204 .462.599 4.796,8.865 4.185,9.172-2.041,1.026-5.662,2.134-8.458,2.328z" fill="#f00" stroke="#000"></path>
	<path d="m67.006,215.488c-.006-1.476.267-3.053-.496-4.368 .201.346 11.107-5.844 12.038-6.397-.439-1.269-.816-2.861-1.538-4.104 1.512,2.604 6.037,2.24 8.538,2.412-1.355,3.074-2.665,6.329-4.123,9.316-.38-1.111-.743-2.342-1.095-3.502-1.728-.188-3.195,1.138-4.639,1.971-2.773,1.599-5.609,3.227-8.394,4.673" fill="#f00" stroke="#000"></path>
	<path d="m133.387,178.231c.075-3.646-4.289-5.367-7.155-6.232-4.171-1.261-7.626.578-11.85.039-2.932-.373-5.786-1.373-8.509-2.492-4.19-1.721-6.146-.289-8.444,3.714-2.697,4.698 3.424,8.214 7.254,9.778 2.423.989 4.38,1.447 7.002,1.445 1.472,0 2.998.143 4.444-.17 1.437-.311 2.771-1.394 4.245-1.297-2.347,2.857-5.892,2.444-9.165,3.197-3.349.77-6.674,1.69-9.889,2.91-3.149,1.195-5.785,3.143-8.867,4.416-1.127.465-2.834.825-3.611,1.887-.979,1.34-.679,4.02-.477,5.564 .272,2.074 1.194,5.26 3.568,5.803 .993.228 1.006.111 1.937-.32 2.568-1.189 4.604-3.584 7.37-4.29 2.609-.666 5.537-1.291 8.217-1.724 3.807-.613 9.096,1.236 11.717-1.998 2.59-3.197 5.211-7.172 7.333-10.732 1.475-2.476 4.818-6.458 4.88-9.498z" fill="#bf0000" stroke="#8f0000"></path>
	<path d="m166.184,91.983c-5.104-2.643-15.794-5.333-21.123-3.123-4.832,2.006-7.044,9.273-5.351,14.096 1.256,3.578 2.439,2.674 6.448,3.002 2.413.197 7.609,2.928 9.649,2.426 3.395-.834 9.27-12.155 9.877-15.9" fill="#0060b6" stroke="#003cff"></path>
	
	<path d="m226.513,362.237c5.383.649 10.669.055 15.163-3.961 9.803-8.762.97-22.592-2.21-32.276-4.24-12.909-13.904-22.326-22.456-32.576-7.165-8.588-12.797-16.861-14.243-28.218-1.39-10.917-.03-22.202 2.417-32.873 .721-3.145 10.679-34.913 6.574-35.935-.598-4.175 4.025-9.45 5.44-13.415 1.431-4.01 3.833-7.491 5.374-11.5 3.022-7.861 3.815-17.018-.764-24.123-5.491-8.518-20.364-6.236-28.038-1.851-13.192,7.538-16.931,20.423-21.71,33.56-5.902,16.22-10.497,33.094-15.39,49.414-1.898,6.33-1.104,11.889-4.383,18.162-2.248,4.3-4.898,9.514-10.052,10.701-5.409,1.246-12.02-2.649-17.71-2.789-4.663-.114-9.417,3.254-10.739,7.902-1.567,5.508-.735,13.09.787,18.51 1.256,4.473 2.969,7.91 5.008,12.018 1.645,3.311 3.155,7.041 4.123,10.619 2.32,8.578 5.766,15.633 10.94,22.988 12.263,17.436 30.818,26.818 51.633,28.023 10.031.58 19.365,2.693 28.988,5.159 3.636.933 7.465,2.004 11.248,2.461z" fill="url(#XMLID_26_)" stroke="#003cff"></path>
	
	<path d="m192.1,149.595-.342.357c-4.41,4.666-11.572,8.621-12.697,15.535-.874,5.375-2.24,16.574 3.734,19.898 3.993,2.221 7.569-1.588 10.863-.9 5.383,1.123 3.984,8.438 10.053,8.996 12.743,1.173 14.375-20.236 17.834-28.207 1.949-4.491 4.427-10.707 2.012-15.705-2.283-4.723-9.432-6.932-14.273-7.086-7.054-.224-12.558,2.37-17.184,7.112z" fill="url(#XMLID_27_)" stroke="#0060b6" stroke-width=".5"></path>
	
	<path d="m98.686,219.02c-.84,5.065-.977,11.787-3.929,16.11-2.43,3.561-4.88,4.689-4.862,9.648 .032,8.576 5.919,16.205 9.289,23.717 3.07,6.844 1.233,15.979 1.512,23.48 .709,19.145-.528,38.406-.512,57.566 .002,2.746-.381,5.211.84,7.543 2.181,4.166 10.001,7.281 14.237,8.045 9.714,1.75 24.32-.076 24.046-12.248-.099-4.385-1.608-8.971-2.012-13.372-.102-1.106-1.445-15.568 1.338-15.307-6.849-.644-13.196-11.659-15.878-16.933-4.313-8.477-4.672-17.456-10.18-25.438-5.364-7.773-4.059-16.168 3.134-22.273 5.095-4.323 12.053-4.535 18.097-2.156 5.897,2.322 7.588,7.373 9.37,13.092 .75,2.408.336,5.461 3,3.621 2.911-2.01 2.509-9.031 2.502-12.096-.011-4.777 1.096-8.843 6.502-9.537 4.488-.576 8.998,2.607 13.858,2.158-2.648.245-7.706-5.48-9.077-7.352-2.566-3.5-3.466-8.099-4.302-12.295-3.358-16.856 17.928-34.744 4.135-50.514-4.622-5.283-5.991-8.526-7.097-15-1.109-6.486-3.221-12.91-3.988-19.472-.593-5.069-.899-10.47-.552-15.647 .188-2.805 1.001-5.703 1.663-8.49 .565-2.379 2.405-6.168 2.484-8.389 .313-8.792-24.003-5.572-28.645-.023-2.079,2.484-1.283,4.197-.963,6.988 .644,5.621.22,10.629-.889,16.186-2.172,10.891-3.903,21.396-7.511,31.864-5.25,15.24-12.967,30.593-15.61,46.524z" fill="url(#XMLID_28_)" stroke="#003cff"></path>
	
	<path d="m134.677,190.063c6.81-1.476 11.983.958 18.443,2.231 .196.039-3.882-8.94-4.591-9.805-2.341-2.848-5.776-5.747-9.19-6.031-5.016-.418-18.754,8.777-17.579,16.431 4.56.661 8.595-1.89 12.917-2.826z" fill="url(#XMLID_29_)"></path>
	
	<path d="m115.271,240.798c-1.785-1.631-3.467-3.568-5.233-4.742-4.284-2.848-10.251-2.303-11.005,3.414-.58,4.391 2.264,9.518 4.78,12.907s4.456,2.569 7.894,1.106c2.557-1.087 4.691-1.977 7.477-2.637 2.277-.539 7.171-.25 8.998-1.438 9.046-5.886-7.065-5.362-8.996-6.023-1.395-.478-2.68-1.458-3.915-2.587z" fill="url(#XMLID_30_)"></path>
	
	<path d="m212.297,203.497c3.069-13.209 6.634-27.138 15.85-37.514 5.219-5.875 6.985-10.477 9.676-17.889 1.915-5.275 4.849-8.828 9.35-12.25 2.245-1.706 9.78-7.973 10.935-3.758 1.466,5.352-4.686,12.068-6.38,16.92-2.236,6.402 3.247,8.719 8.382,11.104-.498.587-.574,1.311-1.249,1.896 1.099-.952 7.146-2.484 8.876-3.113 3.297-1.198 5.942-.885 8.949,1.092 2.586,1.699 7.188,6.854 6.266,10.295-.983,3.662-17.602,9.916-8.642,15.605 3.807,2.416 7.377-1.642 10.887-2.525 4.207-1.059 6.501,1.49 7.875,5.999 1.696,5.563.41,6.093-3.768,8.224-5,2.552-12.632,6.719-11.798,13.285 .698,5.499 4.993,10.522 6.694,15.551 1.808,5.344 5.263,9.119 8.941,13.299 5.909,6.714 12.551,11.915 15.659,20.586 5.667,15.811 5.28,32.551 1.293,48.773-3.763,15.311-15.752,29.787-28.914,38.148-13.48,8.563-21.771-1.184-31.192-10.182-11.038-10.542-14.792-28.697-20.903-42.185-3.519-7.765-7.635-15.015-10.875-22.938-2.013-4.923-4.372-9.793-5.563-14.994-1.814-7.922-3.93-15.975-4.688-24.088-.877-9.378 2.227-20.249 4.339-29.341z" fill="url(#XMLID_31_)" stroke="#8f0000"></path>
		
	<path d="m253.988,178.796c2.983,1.941 3.958,4.694 5.817,7.496 .056.086 1.851-4.621 1.909-5.188 .192-1.874.011-4.162-1.113-5.504-1.649-1.97-9.924-3.653-12.279-.478 1.399,1.893 3.774,2.441 5.666,3.674z" fill="url(#XMLID_32_)"></path>
		
	<path d="m266.362,196.54c1.947,2.979 1.729,5.891 2.302,9.205 .017.1 3.557-3.482 3.839-3.979 .932-1.638 1.688-3.805 1.2-5.486-.716-2.469-7.609-7.344-11.046-5.387 .517,2.297 2.47,3.756 3.705,5.647z" fill="url(#XMLID_33_)"></path>
	
	<path d="m191.158,144.481c-7.493,9.971-16.725,19.688-18.355,32.501-.595,4.681-.787,10.196-6.795,8.19-3.606-1.203-8.034-5.301-10.38-8.262-4.415-5.572-7.188-12.322-8.976-19.154-3.418-13.066-3.754-27.615-.604-40.775 4.5-18.801 13.985-38.014 28.139-51.498 4.492-4.279 8.286-6.619 7.606-13.36-.565-5.6-3.601-10.568-6.942-15.018 2.54-2.904 7.633-6.6 11.379-7.669 4.026-1.149 2.699-.601 4.044,2.841 3.907,9.994 8.123,18.096 17.396,24.03-1.822-1.364-3.153-3.13-4.333-4.871 7.074.491 12.904-3.415 17.236-8.563 1.734-2.063 4.146-4.568 5.51-6.889 .836-1.424.957-3.482 2.066-4.623 2.256-2.322 12.581-2.781 12.86,1.611 .118,1.861-5.988,6.883-6.76,9.174-1.65,4.902-.571,11.515-.563,16.653-.46-6.37 1.387-16.011 6.137-20.437 6.699-6.244 10.428,1.393 15.732,6.055-2.816-2.475-6.478,4.576-7.019,6.119-3.144,8.979 2.34,13.574 5.807,20.968 6.571,14.018 7.981,32.439 4.809,47.45 .435-2.056-8.234.153-9,.245-3.418.411-7.661-.656-10.938-1.617-4.035-1.184-9.165-1.935-12.662-4.279-3.184-2.135-4.914-5.803-8.072-8.008-10.048-7.02-18.506,2.441-21.821,11.674-1.851,5.156-.698,10.219.65,15.001 .826,2.928 1.402,2.44-.25,5.415-1.401,2.52-4.123,4.731-5.901,7.096z" fill="url(#XMLID_34_)" stroke="#8f0000"></path>
	
		<path d="m196.969,118.19c.519-1.881 1.322-3.756 2.377-5.746 .949-1.793 2.074-3.466 3.509-4.908 1.283-1.289 2.964-3.055 4.829-3.391 2.166-.389 5.388.916 7.44,1.608 4.516,1.522 8.742,4.335 13.671,4.22 4.383-.102 8.695,1.164 13,1.871 5.982.982 12.28.896 18.351.527 4.176-.254 8.285-1.167 12.472-1.32 2.013-.074 4.067-.014 6.028.488 1.671.428 3.231,2.215 4.319,3.587 4.451,5.618 3.333,14.735-2.783,18.87-2.876,1.943-5.37,1.207-8.673,1.449-5.156.378-11.18,1.371-16.214,2.637-8.937,2.246-14.271,6.904-18.126,14.775-2.884,5.891-7.34,12.011-11.884,16.623-.828-9.308 2.26-22.422-9.214-26.358-4.718-1.618-10.067-.64-14.825.28-4.448.858-9.384,1.819-12.83,4.992 .322-3.771 4.699-7.826 6.823-10.898 2.28-3.299 2.716-4.779 1.839-8.662-.809-3.587-1.1-7.048-.109-10.644z" fill="#0060b6"></path>
		<path d="m225.351,169.983c.745-2.904 4.323-5.482 6.008-7.874 2.252-3.197 4.173-6.292 5.951-9.792 3.339-6.57 8.394-10.563 15.208-13.037 1.937-.703 3.611-1.752 5.625-2.305 2.045-.563 4.116-.879 6.207-1.113 3.609-.402 7.225-.652 10.839-.915 1.604-.116 2.494.167 3.835-.716 1.202-.791 2.445-1.571 3.29-2.769 1.79-2.538 3.983-5.877 3.567-9.118-.316-2.467-1.312-4.549-2.518-6.68-.761-1.344-1.265-2.67-2.671-3.519-2.639-1.595-6.235-1.231-9.163-.954-4.22.399-8.454.787-12.684.967-2.363.101-4.744.193-7.112.163-2.581-.033-5.334.278-7.895-.122-3.137-.49-6.242-1.139-9.358-1.717-1.755-.324-3.529-.492-5.302-.707-1.649-.2-3.224-.818-4.864-.967-2.9-.262-4.866-1.505-7.59-2.284-1.409-.403-2.87-.63-4.234-1.166-1.507-.592-2.568-.86-4.307-.876" fill="none" stroke="#003cff"></path>
		<path d="m188.434,147.983c.823-1.27 1.038-2.463 1.988-3.676 1.504-1.92 2.506-4.129 3.949-6.086 1.385-1.878 3.619-4.191 3.313-6.738" fill="none" stroke="#003cff"></path>
	
	<path d="m207.035,139.483c4.223,0 8.584.891 12.28,2.996 2.299,1.311 3.925,3.523 5.201,5.789 2.144,3.804 3.055,8.617 3.049,12.943-.003,1.833.141,3.674-.054,5.502-.073.689-.448,1.588-.229,2.263s1.153,1.263 1.616,1.755c1.08,1.148 2.152,2.816 3.546,3.58-1.501-.822 1.312-6.485 1.824-7.465 1.178-2.253 3.846-4.508 6.092-5.604 3.357-1.635 7.231-1.707 10.795-1.04 2.286.429 4.072,1.411 6.159,2.381 1.796.835 3.113,2.379 4.712,3.48 2.677,1.845 4.617,5.189 6.703,7.651 2.605,3.074 5.812,5.919 7.625,9.577 .876,1.767 2.165,3.195 3.187,4.907 1.063,1.783 1.926,3.695 2.55,5.676 .75,2.381.58,5.154.342,7.617-.223,2.304-.529,4.635.156,6.895 .296.978.708,2.015 1.376,2.802 .724.854 1.573.917 2.485,1.384 5.522,2.828 5.791,7.801 9.383,12.383 3.659,4.668 8.434,8.369 11.953,13.15 6.552,8.901 9.913,17.463 12.889,28.002 5.411,19.162 2.68,40.484-4.73,58.735-3.775,9.298-8.966,17.535-15.37,25.222-6.932,8.318-12.751,11.482-23.301,14.664-5.326,1.606-9.893,4.215-15.5,5.178-5.473.939-11.053,1.141-16.596,1.197-9.66.1-19.137-.357-28.637-1.9-15.695-2.551-30.51-7.265-45.765-11.598-16.557-4.703-31.358-15.105-41.622-28.988-4.953-6.699-8.83-14.23-12.99-21.412-5.419-9.354-11.755-18.129-11.077-29.508 .15-2.518.333-5.032.194-7.561-.159-2.912-1.141-6.817-3.489-8.736-11.108-4.168-11.955-18.922-12.005-20.121-.478-6.422 2.164-17.465 4.012-20.975 .271-.516.811-1.027.998-1.566 4.013-10.631 8.53-15.025 9.797-18.287 1.841-6.219 10.054-14.679 11.313-16.466 .803-1.14 1.678-2.04 2.537-3.128 1.799-2.279 3.699-4.811 5.668-6.906 2.326-2.475 4.63-5.152 7.697-6.719 2.757-1.408 6.142-2.203 9.284-1.85 2.803.316 5.67,1.641 7.744,3.5 2.781,2.492 4.791,5.691 7.342,8.397 1.104,1.171 2.345,2.142 3.373,3.345 1,1.171 2.455,1.635 3.595,2.616 .867.747 1.33,1.339 2.509,1.338 3.23-.001 4.228-3.63 4.816-6.181 .343-1.486.558-3.008 1.129-4.406 .749-1.833 1.269-3.777 1.93-5.645 .683-1.926 1.718-3.896 2.926-5.549 1.064-1.454 1.786-3.123 2.79-4.648 1.584-2.406 3.589-4.475 5.686-6.436 .965-.902 1.541-1.989 2.412-2.989 .998-1.146 2.132-2.163 3.207-3.233 1.768-1.76 3.508-3.412 5.741-4.518 1.457-.722 3.063-1.096 4.715-1.289 2.001-.231 4.071-.2 6.027-.201zm-52.882,42.635c-.869-1.197-1.34-2.71-2.47-3.662-.967-.813-5.174-4.762-6.229-5.935-.854-.95-1.22-1.706-2.633-1.886-1.595-.203-3.191.34-4.723.703-2.619.62-5.154,1.564-7.523,2.843-3.271,1.765-5.476,5.404-8.014,8.054-1.502,1.566-3.352,2.74-4.607,4.541-1,1.432-1.964,2.863-2.901,4.353-2.36,3.752-4.864,7.458-7.869,10.729-1.872,7.631-10.934,25.189-8.087,19.107 1.161-2.479-1.245,5.686-1.512,8.364-4.151,13.528 1.904,24.274 5.618,27.515 4.356,3.799 6.809.652 10.98-1.365 6.721-3.25 16.719-2.746 23.022,1.273 3.173,2.023 5.891,5.477 7.35,8.922 .859,2.029 3.682,11.647-.878,11.48-2.007-.073-4.174-10.779-5.365-12.562-4.3-6.437-13.572-9.265-20.555-5.763-4.442,2.227-4.953,9.064-5.623,13.51-.38,2.519 1.31,3.947 3.265,5.297 5.512,3.803 8.25,14.567 9.778,20.832 1.556,6.375 3.829,9.521 8.402,14.027 11.915,11.738 17.871,25.452 36.074,28.232 3.995.609 8.797.387 12.534,2.24 2.623,1.301 3.407,3.334 5.968,4.135 2.834.886 5.194-.719 7.921,1.006 3.194,2.018 3.001,4.357 7.602,4.492 4.724.139 8.372-.51 13.134.879 3.771,1.102 7.503,2.719 11.392,3.137 5.666.609 13.659.133 14.873-6.914 1.067-6.195-4.64-14.256-7.441-19.414-4.028-7.416-8.477-14.602-12.224-22.169-10.893-22.003-29.891-45.266-25.603-71.044 1.105-6.645 4.304-12.649 7.261-18.617 1.487-3 2.938-6.029 4.063-9.188 .489-1.373.67-2.791 1.143-4.141 .565-1.618 1.108-3.167 1.048-4.913-.078-2.252-1.229-4.115-3.484-4.234-3.825-.201-7.419-.071-10.03-3.24-1.191-1.445-1.875-3.779-1.875-5.634 0-.952.375-3.113 1.53-2.281 .947.683.818,2.562 1.213,3.565 .543,1.38 1.782,2.773 2.872,3.715 1.563,1.352 4.429,1.339 6.272.743 1.352-.437 2.342-1.111 3.325-2.14 .439-.459 1.047-.932 1.421-1.434 1.147-1.543 1.959-4.273 2.334-6.123 .236-1.166.146-2.291.617-3.412 .707-1.684 1.742-3.26 2.53-4.912 1.61-3.375 2.97-6.876 4.01-10.469 .64-2.213 1.385-4.581 1.225-6.903-.166-2.416-.377-5.528-1.369-7.749-.499-1.119-1.181-1.885-2.23-2.482-1.002-.57-1.726-1.334-2.738-1.871-1.924-1.02-3.825-1.775-6.012-1.973-3.188-.289-6.099-.616-9.153.373-2.899.939-5.8,2.064-8.18,3.928-2.006,1.572-3.147,3.994-4.812,5.912-1.81,2.086-3.78,4.205-5.836,6.035-1.908,1.697-2.457,4.574-3.082,6.959-1.345,5.126-1.164,10.719 1.525,15.393 1.753,3.048 4.418,3.424 7.621,2.829 .861-.159 3.683-1.761 4.183-.503 .448,1.127-2.306,2.775-3.055,3.133-1.565.748-3.364,1.34-5.083,1.541-2.1.246-4.809-.84-6.207-2.462-1.43-1.657-2.021-4.006-3.543-5.675-1.033-1.133-1.892-1.018-2.606.293-2.006,3.676-1.208,7.945-2.147,11.846-4.112,17.083-17.184,30.99-9.905,49.744 1.563,4.026 4.312,7.1 7.524,9.875 1.735,1.5 4.103,2.406 4.424,4.9-6.72,5.031-16.663-10.486-17.967-15.951-2.217-9.287-1.274-18.23 1.771-27.283 .797-2.369 1.429-4.801 2.426-7.098 .948-2.185 1.929-4.234 2.631-6.529 .901-2.943 2.513-7.738.47-10.531-.837-1.145-2.167-2.016-3.322-2.928-.247-.193-3.296-3.461-4.459-5.065zm61.35,24.518c-3.739,5.771-4.947,13.328-4.876,20.1 .065,6.203-1.204,12.225-.33,18.486 1.809,12.955 8.184,25.053 14.383,36.385 8.747,15.989 17.338,32.179 26.389,48.029 3.388,5.934 6.545,13.637 13.195,16.592 5.162,2.294 11.808-1.206 16.802-2.723 5.916-1.797 9.384-5.92 10.139-11.924 .458-3.649-.5-8.686 5.263-6.5 2.909-5.02 1.795-9.459 6.687-12.838 2.416-1.668 6.432-3.477 5.97-7.146-.389-3.092-4.355-3.596-5.13-6.477-.64-2.379 1.073-4.308 1.696-6.539 1.002-3.591.322-2.697-.915-5.475-2.156-4.843-.952-9.516-1.488-14.975-1.267-12.902-5.697-23.781-16.008-32.037-2.59-2.074-5.685-3.412-8.098-5.598-4.437-4.02-.131-16.374-5.751-17.562-2.899-.612-6.318,2.132-7.753,4.427-1.157,1.852-1.972,4.164-2.626,6.244-.45,1.434-.681,2.896-.836,4.385-.189,1.807.109,3.367-.004,5.118-.081,1.256.62,5.901-1.147,5.911-1.969.012-2.149-3.194-2.401-4.569-.41-2.235-.456-4.532-.259-6.794 .207-2.377.672-4.734 1.394-7.01 .564-1.775.971-3.543 2.271-4.893 2.841-2.95 6.03-5.521 9.615-7.516 3.152-1.753 4.183-4.282 5.216-7.505 .411-1.281.714-2.384.874-3.723 .282-2.348.433-4.468-.188-6.78-.527-1.967-1.993-3.375-3.198-4.938-1.336-1.733-1.512-3.666-2.558-5.511-2.37-4.176-7.61-10.717-11.678-13.344-1.711-1.104-3.713-1.277-4.971-2.832-1.06-1.311-2.551-2.068-4.197-2.357-3.17-.557-6.95.436-9.332,2.635-1.289,1.189-2.1,2.584-2.878,4.134-.615,1.226-1.529,2.429-1.978,3.726-.979,2.829-.592,7.066.78,9.75 1.716,3.355 3.051,6.738 3.109,10.617 .1,6.646 3.336,14.702.712,21.041-1.519,3.666-3.917,7.635-7.1,10.089-4.498,3.47-8.741,1.292-3.48-3.11 6.866-5.746 8.062-11.994 6.259-20.273-.345-1.588-.091-3.503.009-5.123 .082-1.313-.205-10.346-3.027-9.258-.814.314-1.153,1.559-1.59,2.221-.544.827-1.291,1.383-2.121,1.965-1.742,1.224-3.671,2.066-5.817,2.197-.813.049-4.884-.599-4.864-1.662 .017-.893 2.6-.91 3.148-.961 1.464-.133 2.711-.12 3.972-1.002 1.658-1.16 2.357-3.047 2.522-4.972 .254-2.962.92-6.014.127-8.908-.406-1.487-2.426-5.224-4.383-4.122-1.271.715-1.635,3.48-2.391,4.618-.942,1.417-1.74,2.915-2.606,4.39-.599,1.02-1.536,1.912-2.003,2.995-.638,1.479-.469,3.339-.779,4.903-.264,1.332-.48,2.643-.81,3.965-.34,1.368-1.27,3.529-1.042,4.92 .266,1.633 1.83-.435 2.182-.939 .225-.322 2.313-4.178 1.643-4.366 6.539,1.831-2.015,9.749-3.744,12.419z" fill="#e4bc96" stroke="#fff"></path>
	<path d="m130.983,188.622c-1.366,4.256-1.256,10.047-1.128,12.939 .221,5.011.92,10.065 2.105,14.941 .982,4.042 1.499,13.058 3.835,15.803-12.038-14.15-32.957,10.652-19.477,13.481-.107-4.185 5.093-6.845 8.815-6.649 10.281.538 15.23,9.44 20.189,16.811 6.467,9.61 13.303,19.075 19.849,28.659 5.197,7.609 11.333,15.055 16.542,22.463-4.241,1.752-12.686,1.687-15.67,4.639 8.402,2.9 16.897,5.435 25.118,8.848 5.295,2.199 11.115,6.668 16.548,7.871-1.948-.432-4.797-19.319-5.861-21.737-3.543-8.053-6.112-18.628-11.946-25.439-.047,1.567-1.635,18.779-.657,19.048-5.177-1.418-7.241-7.685-9.982-11.727-11.631-17.15-24.316-33.912-32.473-53.102-3.357-7.898-7.563-17.109-8.298-25.712-.734-8.597 1.152-17.197.505-25.788-4.472-1.648-6.813.908-8.014,4.651z" fill="#f00" stroke="#000"></path>
	<path d="m269.969,309.468c3.721,2.282 7.614,4.237 11.744,5.518-.683-2.468-2.104-4.123-3.267-6.372-2.821-5.457-5.653-12.645-5.621-18.874 .03-5.703 1.613-10.775.753-16.669-2.675,4.48-6.241,8.856-7.796,13.914 .433-1.408-5.903-10.715-6.645-12.854-1.513-4.363-3.05-9.099-3.997-13.658-4.116-19.804-3.486-40.474 9.994-56.45 1.354-1.605 8.234-7.281 5.346-9.546-4.896-3.84-17.537,16.895-19.245,19.354 2.729-3.929 1.274-15.085 2.612-20.338 .571-2.241 5.088-14.793-.783-13.648-4.514.88-6.01,15.9-6.778,19.347-4.365,19.577-7.536,40.783-3.982,60.662 2.055,11.498 5.239,20.405 11.394,29.919-4.238-1.912-10.075-3.786-14.393-4.646 3.644.726 6.164,5.231 8.575,7.596 2.985,2.926 6.357,5.478 9.742,8.032 3.951,2.981 8.033,6.067 12.347,8.713z" fill="#f00" stroke="#000"></path>
	<path d="m303.584,182.403c2.097-1.072 1.185,2.314 1.541,3.652 .076.284 11.458.573 12.357.218-.639.253.059,5.173-.318,6.042-.841,1.938-.741,1-2.477.102-3.175-1.644-6.888-1.796-10.346-2.404-.095,1.496.245,3.146-.171,4.644-.66-.369-7.892-6.27-7.45-6.792 1.474-1.743 4.369-4.184 6.864-5.462z" fill="#f00" stroke="#000"></path>
	<path d="m296.586,143.498c.584,1.354.953,2.912 2.171,3.822-.32-.239-7.92,9.736-8.559,10.61 .902.994 1.875,2.312 3.026,3.171-2.413-1.801-6.432.311-8.799,1.135 .04-3.359-.035-6.867.133-10.188 .786.873 1.603,1.862 2.382,2.791 1.663-.505 2.492-2.301 3.493-3.634 1.923-2.56 3.892-5.17 5.885-7.594" fill="#f00" stroke="#000"></path>
	<path d="m129.287,103.595c-1.212-2.02 2.229-1.339 3.54-1.783 .278-.095-.202-11.47-.618-12.344 .295.62 5.157-.409 6.049-.092 1.989.708 1.048.673.269,2.465-1.426,3.278-1.327,6.992-1.7,10.485 1.499-.007 3.123-.457 4.645-.144-.324.683-5.723,8.297-6.273,7.892-1.838-1.352-4.469-4.075-5.912-6.479z" fill="#f00" stroke="#000"></path>
	<path d="m120.34,389.707c-1.245-.792-2.425-1.874-3.944-1.942 .399.018 1.081-12.504 1.118-13.587-1.305-.315-2.849-.858-4.285-.922 3.008.134 5.146-3.871 6.641-5.883 1.855,2.802 3.888,5.661 5.614,8.502-1.141-.281-2.373-.64-3.539-.97-1.091,1.352-.768,3.303-.847,4.969-.152,3.197-.314,6.463-.601,9.588" fill="#f00" stroke="#000"></path>


	<path d="m174.542,409.493c1.12-.2 2.58-.3 4.1-.3 2.58,0 4.26.42 5.54,1.4 1.4,1.04 2.28,2.72 2.28,5.12 0,2.579-.94,4.359-2.22,5.46-1.42,1.18-3.6,1.739-6.24,1.739-1.58,0-2.72-.1-3.46-.199v-13.22zm3.04,10.981c.26.06.7.06 1.06.06 2.78.021 4.6-1.5 4.6-4.72 0-2.9-1.64-4.28-4.28-4.28-.66,0-1.12.061-1.38.12v8.82z"></path>
	<path d="m189.902,411.714c-1.02,0-1.68-.721-1.68-1.62 0-.92.68-1.62 1.72-1.62s1.68.7 1.7,1.62c0,.899-.66,1.62-1.72,1.62h-.02zm-1.5,11.059v-9.78h3.04v9.78h-3.04z"></path>
	<path d="m202.021,420.413c0,.92.04,1.82.16,2.36h-2.74l-.18-.98h-.06c-.64.78-1.64,1.2-2.8,1.2-1.98,0-3.16-1.439-3.16-3 0-2.54 2.28-3.739 5.74-3.739v-.12c0-.521-.28-1.261-1.78-1.261-1,0-2.06.341-2.7.721l-.56-1.94c.68-.38 2.02-.88 3.8-.88 3.26,0 4.28,1.92 4.28,4.22v3.419zm-2.939-2.26c-1.6,0-2.84.38-2.84,1.54 0,.78.52,1.16 1.2,1.16 .74,0 1.38-.5 1.58-1.12 .04-.16.06-.34.06-.52v-1.06z"></path>
	<path d="m204.422,420.134c.56.34 1.72.72 2.62.72 .92,0 1.3-.3 1.3-.8 0-.521-.3-.761-1.42-1.141-2.04-.659-2.82-1.779-2.8-2.92 0-1.84 1.56-3.22 3.98-3.22 1.14,0 2.14.28 2.74.58l-.52,2.08c-.44-.22-1.3-.54-2.12-.54-.74,0-1.16.3-1.16.78s.38.72 1.58,1.14c1.86.62 2.62,1.58 2.64,3 0,1.84-1.42,3.18-4.22,3.18-1.28,0-2.42-.3-3.16-.7l.54-2.159z"></path>
	<path d="m216.521,410.333v2.66h2.18v2.24h-2.18v3.56c0,1.181.3,1.721 1.2,1.721 .42,0 .62-.021.9-.08l.02,2.3c-.38.14-1.12.26-1.96.26-.98,0-1.8-.34-2.3-.84-.56-.58-.84-1.52-.84-2.899v-4.021h-1.3v-2.24h1.3v-1.84l2.98-.821z"></path>
	<path d="m224.861,422.993c-2.86,0-5.06-1.88-5.06-5.04s2.08-5.18 5.24-5.18c2.98,0 4.98,2.06 4.98,5.02 0,3.561-2.54,5.2-5.14,5.2h-.02zm.06-2.18c1.2,0 1.94-1.18 1.94-2.94 0-1.439-.56-2.92-1.94-2.92-1.44,0-2,1.48-2,2.94 0,1.66.7,2.92 1.98,2.92h.02z"></path>
	<path d="m231.901,408.573h3.04v14.2h-3.04v-14.2z"></path>
	<path d="m239.722,418.833c.1,1.28 1.34,1.881 2.76,1.881 1.04,0 1.88-.141 2.7-.421l.4,2.061c-1,.42-2.22.62-3.54.62-3.32,0-5.22-1.92-5.22-5 0-2.48 1.56-5.22 4.94-5.22 3.16,0 4.36,2.46 4.36,4.88 0,.52-.06.979-.1,1.22l-6.3-.021zm3.58-2.079c0-.721-.32-1.98-1.7-1.98-1.3,0-1.82,1.18-1.9,1.98h3.6z"></path>


	<path d="m192.378,429.445c-.876,1.188-1.5,2.736-1.5,4.92 0,2.136.66,3.66 1.5,4.86h-.816c-.756-.996-1.572-2.532-1.572-4.872 .012-2.353.816-3.9 1.572-4.908h.816z"></path>
	<path d="m193.603,437.773v-5.004h-.804v-.804h.804v-.276c0-.816.192-1.561.684-2.028 .396-.384.924-.54 1.404-.54 .384,0 .696.084.9.168l-.132.816c-.168-.072-.372-.132-.684-.132-.888,0-1.128.792-1.128,1.68v.313h1.404v.804h-1.392v5.004h-1.056z"></path>
	<path d="m197.514,430.897c-.396,0-.66-.313-.66-.685s.276-.672.684-.672 .672.301.672.672-.264.685-.684.685h-.012zm-.504,6.876v-5.808h1.056v5.808h-1.056z"></path>
	<path d="m199.818,429.253h1.056v8.521h-1.056v-8.521z"></path>
	<path d="m202.626,429.253h1.056v8.521h-1.056v-8.521z"></path>
	<path d="m205.938,430.897c-.396,0-.66-.313-.66-.685s.276-.672.684-.672 .672.301.672.672-.264.685-.684.685h-.012zm-.503,6.876v-5.808h1.056v5.808h-1.056z"></path>
	<path d="m208.243,433.537c0-.611-.012-1.092-.048-1.571h.936l.06.947h.024c.288-.54.96-1.08 1.92-1.08 .804,0 2.052.48 2.052,2.473v3.468h-1.056v-3.348c0-.937-.348-1.729-1.344-1.729-.684,0-1.224.492-1.416,1.08-.048.132-.072.324-.072.492v3.504h-1.056v-4.236z"></path>
	<path d="m219.871,436.922c0,1.344-.276,2.147-.828,2.664-.576.516-1.392.695-2.124.695-.696,0-1.464-.168-1.932-.479l.264-.816c.384.252.984.468 1.704.468 1.08,0 1.872-.563 1.872-2.04v-.636h-.024c-.312.54-.948.972-1.848.972-1.44,0-2.472-1.224-2.472-2.844 0-1.968 1.284-3.072 2.628-3.072 1.008,0 1.548.517 1.812.996h.024l.036-.863h.936c-.036.407-.048.876-.048,1.584v3.371zm-1.056-2.677c0-.168-.012-.323-.06-.468-.192-.624-.696-1.128-1.476-1.128-1.008,0-1.728.852-1.728,2.208 0,1.128.588,2.088 1.716,2.088 .66,0 1.248-.408 1.464-1.092 .06-.168.084-.372.084-.564v-1.044z"></path>
	<path d="m220.975,439.226c.84-1.188 1.5-2.736 1.5-4.896s-.648-3.684-1.5-4.884h.816c.756.984 1.572,2.532 1.572,4.884-.012,2.353-.816,3.876-1.572,4.896h-.816z"></path>


	<path d="m547.642,419.653c.8.42 2.08.84 3.38.84 1.4,0 2.141-.58 2.141-1.479 0-.82-.641-1.32-2.26-1.88-2.24-.801-3.721-2.04-3.721-4.021 0-2.3 1.939-4.04 5.1-4.04 1.541,0 2.641.3 3.44.681l-.681,2.439c-.52-.26-1.5-.64-2.799-.64-1.32,0-1.961.62-1.961,1.3 0,.86.74,1.24 2.5,1.92 2.381.88 3.48,2.12 3.48,4.04 0,2.26-1.721,4.18-5.42,4.18-1.54,0-3.061-.42-3.82-.84l.621-2.5z"></path>
	<path d="m560.222,412.993 1.46,4.8c.16.58.359,1.301.48,1.82h.06c.14-.52.3-1.26.44-1.82l1.199-4.8h3.26l-2.279,6.44c-1.4,3.88-2.34,5.42-3.439,6.399-1.041.921-2.16,1.261-2.94,1.341l-.64-2.561c.379-.08.859-.26 1.319-.52 .46-.24.979-.74 1.261-1.221 .1-.159.159-.3.159-.439 0-.101-.021-.26-.12-.5l-3.6-8.94h3.38z"></path>
	<path d="m568.163,420.134c.56.34 1.72.72 2.619.72 .921,0 1.301-.3 1.301-.8 0-.521-.301-.761-1.42-1.141-2.04-.659-2.82-1.779-2.801-2.92 0-1.84 1.561-3.22 3.98-3.22 1.141,0 2.141.28 2.74.58l-.52,2.08c-.44-.22-1.301-.54-2.121-.54-.739,0-1.16.3-1.16.78s.381.72 1.58,1.14c1.86.62 2.621,1.58 2.641,3 0,1.84-1.42,3.18-4.221,3.18-1.279,0-2.42-.3-3.159-.7l.541-2.159z"></path>
	<path d="m580.262,410.333v2.66h2.18v2.24h-2.18v3.56c0,1.181.3,1.721 1.199,1.721 .421,0 .621-.021.9-.08l.021,2.3c-.38.14-1.12.26-1.96.26-.98,0-1.801-.34-2.301-.84-.56-.58-.84-1.52-.84-2.899v-4.021h-1.3v-2.24h1.3v-1.84l2.981-.821z"></path>
	<path d="m588.602,422.993c-2.86,0-5.061-1.88-5.061-5.04s2.08-5.18 5.24-5.18c2.98,0 4.98,2.06 4.98,5.02 0,3.561-2.541,5.2-5.141,5.2h-.018zm.06-2.18c1.2,0 1.94-1.18 1.94-2.94 0-1.439-.561-2.92-1.94-2.92-1.44,0-2,1.48-2,2.94 0,1.66.7,2.92 1.979,2.92h.021z"></path>
	<path d="m595.642,408.573h3.04v14.2h-3.04v-14.2z"></path>
	<path d="m603.461,418.833c.1,1.28 1.34,1.881 2.76,1.881 1.04,0 1.881-.141 2.7-.421l.399,2.061c-1,.42-2.219.62-3.539.62-3.32,0-5.221-1.92-5.221-5 0-2.48 1.561-5.22 4.94-5.22 3.159,0 4.36,2.46 4.36,4.88 0,.52-.061.979-.101,1.22l-6.298-.021zm3.581-2.079c0-.721-.32-1.98-1.7-1.98-1.3,0-1.819,1.18-1.899,1.98h3.599z"></path>


	<path d="m556.378,427.445c-.876,1.188-1.5,2.736-1.5,4.92 0,2.136.659,3.66 1.5,4.86h-.816c-.756-.996-1.571-2.532-1.571-4.872 .012-2.353.815-3.9 1.571-4.908h.816z"></path>
	<path d="m557.506,431.861c0-.744-.012-1.344-.048-1.896h.948l.06.995h.024c.42-.72 1.115-1.128 2.052-1.128 1.416,0 2.472,1.188 2.472,2.952 0,2.088-1.283,3.12-2.64,3.12-.78,0-1.44-.336-1.788-.912h-.023v3.156h-1.057v-6.287zm1.057,1.548c0,.145.012.3.047.433 .181.731.828,1.235 1.572,1.235 1.116,0 1.764-.912 1.764-2.244 0-1.164-.6-2.159-1.715-2.159-.721,0-1.404.504-1.608,1.296-.024.144-.06.3-.06.432v1.007z"></path>
	<path d="m569.194,434.189c0,.6.012,1.128.049,1.584h-.937l-.06-.948h-.024c-.265.468-.888,1.08-1.92,1.08-.912,0-2.005-.516-2.005-2.544v-3.396h1.057v3.203c0,1.104.348,1.86 1.296,1.86 .708,0 1.2-.492 1.392-.972 .061-.145.097-.336.097-.54v-3.552h1.056v4.225z"></path>
	<path d="m570.946,431.537c0-.611-.023-1.092-.048-1.571h.924l.048.936h.036c.324-.552.864-1.068 1.836-1.068 .78,0 1.38.48 1.632,1.164h.024c.18-.336.42-.575.66-.756 .348-.264.72-.408 1.272-.408 .779,0 1.92.504 1.92,2.521v3.42h-1.033v-3.288c0-1.128-.42-1.788-1.26-1.788-.611,0-1.068.444-1.26.948-.048.156-.084.348-.084.528v3.6h-1.031v-3.48c0-.936-.408-1.596-1.213-1.596-.648,0-1.14.528-1.308,1.056-.06.156-.084.337-.084.517v3.504h-1.032v-4.239z"></path>
	<path d="m580.954,431.861c0-.744-.012-1.344-.048-1.896h.948l.06.995h.024c.42-.72 1.115-1.128 2.052-1.128 1.416,0 2.472,1.188 2.472,2.952 0,2.088-1.283,3.12-2.64,3.12-.78,0-1.44-.336-1.788-.912h-.023v3.156h-1.057v-6.287zm1.056,1.548c0,.145.012.3.047.433 .181.731.828,1.235 1.572,1.235 1.116,0 1.764-.912 1.764-2.244 0-1.164-.6-2.159-1.715-2.159-.721,0-1.404.504-1.608,1.296-.024.144-.06.3-.06.432v1.007z"></path>
	<path d="m588.286,428.897c-.396,0-.66-.313-.66-.685s.275-.672.684-.672 .672.301.672.672-.264.685-.684.685h-.012zm-.504,6.876v-5.808h1.056v5.808h-1.056z"></path>
	<path d="m590.589,431.537c0-.611-.013-1.092-.048-1.571h.936l.061.947h.023c.289-.54.961-1.08 1.92-1.08 .805,0 2.053.48 2.053,2.473v3.468h-1.057v-3.348c0-.937-.348-1.729-1.344-1.729-.684,0-1.225.492-1.416,1.08-.048.132-.072.324-.072.492v3.504h-1.056v-4.236z"></path>
	<path d="m602.217,434.922c0,1.344-.275,2.147-.828,2.664-.576.516-1.392.695-2.123.695-.697,0-1.465-.168-1.933-.479l.265-.816c.383.252.983.468 1.703.468 1.08,0 1.872-.563 1.872-2.04v-.636h-.024c-.312.54-.947.972-1.848.972-1.439,0-2.472-1.224-2.472-2.844 0-1.968 1.284-3.072 2.628-3.072 1.008,0 1.548.517 1.813.996h.023l.036-.863h.937c-.037.407-.049.876-.049,1.584v3.371zm-1.055-2.677c0-.168-.013-.323-.06-.468-.192-.624-.696-1.128-1.477-1.128-1.008,0-1.729.852-1.729,2.208 0,1.128.588,2.088 1.717,2.088 .66,0 1.248-.408 1.464-1.092 .06-.168.084-.372.084-.564v-1.044z"></path>
	<path d="m603.322,437.226c.84-1.188 1.5-2.736 1.5-4.896s-.648-3.684-1.5-4.884h.815c.756.984 1.572,2.532 1.572,4.884-.012,2.353-.816,3.876-1.572,4.896h-.815z"></path>


	<path d="m336.607,391.373c.528-.108 1.296-.181 2.004-.181 1.116,0 1.849.217 2.353.673 .396.348.635.899.635,1.535 0,1.057-.684,1.765-1.523,2.053v.036c.612.216.984.792 1.188,1.632 .265,1.128.457,1.907.613,2.22h-1.08c-.133-.228-.313-.924-.528-1.932-.24-1.116-.685-1.536-1.632-1.572h-.984v3.504h-1.044v-7.968zm1.044,3.672h1.068c1.115,0 1.824-.612 1.824-1.536 0-1.044-.757-1.5-1.861-1.5-.504,0-.852.048-1.031.096v2.94z"></path>
	<path d="m343.651,392.465c-.396,0-.66-.313-.66-.685s.276-.672.684-.672 .673.301.673.672-.265.685-.685.685h-.012zm-.504,6.876v-5.808h1.057v5.808h-1.057z"></path>
	<path d="m350.923,398.489c0,1.344-.276,2.147-.828,2.664-.576.516-1.392.695-2.124.695-.696,0-1.464-.168-1.932-.479l.264-.816c.384.252.984.468 1.704.468 1.079,0 1.872-.563 1.872-2.04v-.636h-.024c-.312.54-.948.972-1.848.972-1.44,0-2.472-1.224-2.472-2.844 0-1.968 1.283-3.072 2.627-3.072 1.008,0 1.549.517 1.813.996h.023l.037-.863h.936c-.036.407-.048.876-.048,1.584v3.371zm-1.055-2.676c0-.168-.013-.323-.061-.468-.191-.624-.695-1.128-1.477-1.128-1.008,0-1.728.852-1.728,2.208 0,1.128.588,2.088 1.716,2.088 .66,0 1.248-.408 1.465-1.092 .06-.168.084-.372.084-.564v-1.044z"></path>
	<path d="m352.663,390.82h1.057v3.624h.023c.168-.3.433-.575.756-.743 .313-.192.685-.301 1.08-.301 .78,0 2.028.48 2.028,2.484v3.456h-1.056v-3.336c0-.948-.348-1.729-1.344-1.729-.685,0-1.213.48-1.416,1.057-.061.144-.072.3-.072.504v3.504h-1.057v-8.52z"></path>
	<path d="m360.546,392.141v1.393h1.513v.804h-1.513v3.132c0,.72.204,1.128.792,1.128 .288,0 .456-.023.612-.072l.048.805c-.204.071-.528.144-.936.144-.492,0-.889-.168-1.141-.444-.288-.323-.408-.84-.408-1.523v-3.168h-.9v-.804h.9v-1.068l1.033-.327z"></path>
	<path d="m369.882,397.949c0,.504.024.995.084,1.392h-.948l-.096-.732h-.036c-.312.456-.948.864-1.776.864-1.176,0-1.775-.828-1.775-1.668 0-1.404 1.248-2.172 3.492-2.16v-.12c0-.479-.133-1.355-1.32-1.344-.553,0-1.116.156-1.524.432l-.239-.708c.479-.3 1.188-.504 1.92-.504 1.787,0 2.22,1.212 2.22,2.376v2.172zm-1.032-1.572c-1.152-.024-2.46.18-2.46,1.308 0,.696.456,1.008.983,1.008 .769,0 1.261-.479 1.429-.972 .036-.107.048-.228.048-.336v-1.008z"></path>
	<path d="m371.575,395.104c0-.611-.013-1.092-.049-1.571h.937l.06.947h.024c.288-.54.96-1.08 1.92-1.08 .804,0 2.052.48 2.052,2.473v3.468h-1.056v-3.348c0-.937-.348-1.729-1.345-1.729-.684,0-1.224.492-1.416,1.08-.047.132-.071.324-.071.492v3.504h-1.056v-4.236z"></path>
	<path d="m383.25,390.82v7.021c0,.516.013,1.104.049,1.5h-.948l-.048-1.008h-.024c-.324.647-1.02,1.14-1.968,1.14-1.404,0-2.496-1.188-2.496-2.952-.012-1.943 1.2-3.12 2.604-3.12 .9,0 1.5.42 1.753.876h.023v-3.456h1.055zm-1.055,5.076c0-.144-.012-.312-.048-.456-.156-.659-.732-1.212-1.524-1.212-1.092,0-1.739.96-1.739,2.232 0,1.188.588,2.16 1.716,2.16 .708,0 1.355-.48 1.548-1.261 .036-.144.048-.287.048-.455v-1.008z"></path>
	<path d="m387.546,390.82h1.056v8.521h-1.056v-8.521z"></path>
	<path d="m390.954,396.617c.024,1.428.925,2.016 1.98,2.016 .756,0 1.224-.132 1.608-.288l.191.744c-.372.168-1.02.372-1.943.372-1.776,0-2.856-1.188-2.856-2.928 0-1.765 1.044-3.145 2.736-3.145 1.896,0 2.388,1.668 2.388,2.736 0,.216-.012.384-.036.504l-4.068-.011zm3.084-.757c.013-.659-.275-1.716-1.451-1.716-1.08,0-1.536.984-1.62,1.716h3.071z"></path>
	<path d="m396.461,399.341v-5.004h-.804v-.804h.804v-.276c0-.816.192-1.561.685-2.028 .396-.384.924-.54 1.403-.54 .385,0 .696.084.9.168l-.132.816c-.168-.072-.372-.132-.685-.132-.888,0-1.128.792-1.128,1.68v.313h1.404v.804h-1.392v5.004h-1.055z"></path>
	<path d="m401.274,392.141v1.393h1.512v.804h-1.512v3.132c0,.72.203,1.128.792,1.128 .287,0 .456-.023.611-.072l.048.805c-.203.071-.527.144-.936.144-.492,0-.888-.168-1.14-.444-.288-.323-.408-.84-.408-1.523v-3.168h-.9v-.804h.9v-1.068l1.033-.327z"></path>
	<path d="m347.971,407.934 1.139,3.252c.193.54.349,1.02.469,1.5h.036c.132-.48.3-.96.491-1.5l1.129-3.252h1.104l-2.279,5.808h-1.009l-2.208-5.808h1.128z"></path>
	<path d="m353.803,411.018c.023,1.428.924,2.016 1.979,2.016 .756,0 1.224-.132 1.608-.288l.191.744c-.372.168-1.02.372-1.943.372-1.776,0-2.856-1.188-2.856-2.928 0-1.765 1.044-3.145 2.735-3.145 1.896,0 2.389,1.668 2.389,2.736 0,.216-.012.384-.036.504l-4.067-.011zm3.084-.757c.012-.659-.276-1.716-1.453-1.716-1.08,0-1.535.984-1.619,1.716h3.072z"></path>
	<path d="m359.214,409.505c0-.611-.013-1.092-.048-1.571h.936l.061.947h.023c.289-.54.961-1.08 1.92-1.08 .805,0 2.053.48 2.053,2.473v3.468h-1.057v-3.348c0-.937-.348-1.729-1.344-1.729-.684,0-1.225.492-1.416,1.08-.048.132-.072.324-.072.492v3.504h-1.056v-4.236z"></path>
	<path d="m367.098,406.541v1.393h1.513v.804h-1.513v3.132c0,.72.205,1.128.793,1.128 .287,0 .455-.023.611-.072l.049.805c-.205.071-.528.144-.937.144-.492,0-.888-.168-1.14-.444-.289-.323-.408-.84-.408-1.523v-3.168h-.9v-.804h.9v-1.068l1.032-.327z"></path>
	<path d="m369.811,409.745c0-.684-.013-1.271-.049-1.812h.924l.049,1.14h.035c.264-.78.912-1.272 1.62-1.272 .108,0 .192.013.288.036v.984c-.119-.012-.229-.024-.372-.024-.743,0-1.272.564-1.416,1.345-.024.155-.036.323-.036.504v3.096h-1.056l.013-3.997z"></path>
	<path d="m374.274,406.865c-.396,0-.66-.313-.66-.685s.276-.672.684-.672 .673.301.673.672-.264.685-.685.685h-.012zm-.504,6.876v-5.808h1.056v5.808h-1.056z"></path>
	<path d="m380.717,413.537c-.275.132-.888.336-1.668.336-1.752,0-2.892-1.188-2.892-2.976s1.224-3.097 3.12-3.097c.624,0 1.176.156 1.464.313l-.24.804c-.252-.132-.647-.275-1.224-.275-1.332,0-2.052.995-2.052,2.208 0,1.344.863,2.172 2.016,2.172 .6,0 .996-.145 1.296-.276l.18.791z"></path>
	<path d="m381.954,405.221h1.056v8.521h-1.056v-8.521z"></path>
	<path d="m385.361,411.018c.024,1.428.925,2.016 1.98,2.016 .756,0 1.224-.132 1.608-.288l.191.744c-.372.168-1.02.372-1.944.372-1.775,0-2.855-1.188-2.855-2.928 0-1.765 1.044-3.145 2.736-3.145 1.896,0 2.388,1.668 2.388,2.736 0,.216-.012.384-.036.504l-4.068-.011zm3.084-.757c.013-.659-.275-1.716-1.451-1.716-1.08,0-1.536.984-1.62,1.716h3.071z"></path>
	<path d="m390.629,412.673c.323.192.876.408 1.403.408 .756,0 1.116-.372 1.116-.864 0-.504-.3-.779-1.068-1.067-1.056-.384-1.548-.948-1.548-1.645 0-.936.769-1.704 2.004-1.704 .588,0 1.104.156 1.416.36l-.252.756c-.228-.132-.647-.336-1.188-.336-.624,0-.96.36-.96.792 0,.492.336.708 1.092.996 .996.372 1.524.876 1.524,1.752 0,1.032-.805,1.752-2.16,1.752-.637,0-1.225-.168-1.632-.408l.253-.792z"></path>

<path d="m217.396,332.341 113,77-58-86" fill="none" stroke="#000"></path>
<path d="m603.396,333.341-190,77 141-91" fill="none" stroke="#000"></path>

	<path d="m13.308,351.36c.504-.096 1.164-.168 2.004-.168 1.032,0 1.788.24 2.268.673 .444.384.72.972.72,1.691 0,.732-.216,1.309-.636,1.729-.552.588-1.452.888-2.472.888-.312,0-.6-.012-.84-.072v3.24h-1.044v-7.981zm1.044,3.889c.228.06.528.084.864.084 1.272,0 2.028-.624 2.028-1.716 0-1.08-.756-1.597-1.908-1.597-.456,0-.804.048-.984.084v3.145z"></path>
	<path d="m21.72,359.473c-1.56,0-2.784-1.151-2.784-2.988 0-1.943 1.284-3.084 2.88-3.084 1.668,0 2.796,1.212 2.796,2.977 0,2.16-1.5,3.096-2.88,3.096h-.012zm.036-.792c1.008,0 1.764-.948 1.764-2.268 0-.984-.492-2.221-1.74-2.221-1.236,0-1.776,1.152-1.776,2.257 0,1.271.72,2.231 1.74,2.231h.012z"></path>
	<path d="m25.8,358.272c.324.192.876.408 1.404.408 .756,0 1.116-.372 1.116-.864 0-.504-.3-.779-1.068-1.067-1.056-.384-1.548-.948-1.548-1.645 0-.936.768-1.704 2.004-1.704 .588,0 1.104.156 1.416.36l-.252.756c-.228-.132-.648-.336-1.188-.336-.624,0-.96.36-.96.792 0,.492.336.708 1.092.996 .996.372 1.524.876 1.524,1.752 0,1.032-.804,1.752-2.16,1.752-.636,0-1.224-.168-1.632-.408l.252-.792z"></path>
	<path d="m31.968,352.141v1.393h1.512v.804h-1.512v3.132c0,.72.204,1.128.792,1.128 .288,0 .456-.023.612-.072l.048.805c-.204.071-.528.144-.936.144-.492,0-.888-.168-1.14-.444-.288-.323-.408-.84-.408-1.523v-3.168h-.9v-.804h.9v-1.068l1.032-.327z"></path>
	<path d="m35.195,356.617c.024,1.428.924,2.016 1.98,2.016 .756,0 1.224-.132 1.608-.288l.192.744c-.372.168-1.02.372-1.944.372-1.776,0-2.856-1.188-2.856-2.928 0-1.765 1.044-3.145 2.736-3.145 1.896,0 2.388,1.668 2.388,2.736 0,.216-.012.384-.036.504l-4.068-.011zm3.084-.757c.012-.659-.276-1.716-1.452-1.716-1.08,0-1.536.984-1.62,1.716h3.072z"></path>
	<path d="m40.619,355.345c0-.684-.012-1.271-.048-1.812h.924l.048,1.14h.036c.264-.78.912-1.272 1.62-1.272 .108,0 .192.013.288.036v.984c-.12-.012-.228-.024-.372-.024-.744,0-1.272.564-1.416,1.345-.024.155-.036.323-.036.504v3.096h-1.056l.012-3.997z"></path>
	<path d="m45.083,352.465c-.396,0-.66-.313-.66-.685s.276-.672.684-.672 .672.301.672.672-.264.685-.684.685h-.012zm-.504,6.876v-5.808h1.056v5.808h-1.056z"></path>
	<path d="m49.751,359.473c-1.56,0-2.784-1.151-2.784-2.988 0-1.943 1.284-3.084 2.88-3.084 1.668,0 2.796,1.212 2.796,2.977 0,2.16-1.5,3.096-2.88,3.096h-.012zm.036-.792c1.008,0 1.764-.948 1.764-2.268 0-.984-.492-2.221-1.74-2.221-1.236,0-1.776,1.152-1.776,2.257 0,1.271.72,2.231 1.74,2.231h.012z"></path>
	<path d="m53.987,355.345c0-.684-.012-1.271-.048-1.812h.924l.048,1.14h.036c.264-.78.912-1.272 1.62-1.272 .108,0 .192.013.288.036v.984c-.12-.012-.228-.024-.372-.024-.744,0-1.272.564-1.416,1.345-.024.155-.036.323-.036.504v3.096h-1.056l.012-3.997z"></path>
	<path d="m13.68,367.934 1.14,3.252c.192.54.348,1.02.468,1.5h.036c.132-.48.3-.96.492-1.5l1.128-3.252h1.104l-2.28,5.808h-1.008l-2.208-5.808h1.128z"></path>
	<path d="m19.512,371.018c.024,1.428.924,2.016 1.98,2.016 .756,0 1.224-.132 1.608-.288l.192.744c-.372.168-1.02.372-1.944.372-1.776,0-2.856-1.188-2.856-2.928 0-1.765 1.044-3.145 2.736-3.145 1.896,0 2.388,1.668 2.388,2.736 0,.216-.012.384-.036.504l-4.068-.011zm3.084-.757c.012-.659-.276-1.716-1.452-1.716-1.08,0-1.536.984-1.62,1.716h3.072z"></path>
	<path d="m24.924,369.505c0-.611-.012-1.092-.048-1.571h.936l.06.947h.024c.288-.54.96-1.08 1.92-1.08 .804,0 2.052.48 2.052,2.473v3.468h-1.056v-3.348c0-.937-.348-1.729-1.344-1.729-.684,0-1.224.492-1.416,1.08-.048.132-.072.324-.072.492v3.504h-1.056v-4.236z"></path>
	<path d="m35.676,372.35c0,.504.024.995.084,1.392h-.948l-.096-.732h-.036c-.312.456-.948.864-1.776.864-1.176,0-1.776-.828-1.776-1.668 0-1.404 1.248-2.172 3.492-2.16v-.12c0-.479-.132-1.355-1.32-1.344-.552,0-1.116.156-1.524.432l-.24-.708c.48-.3 1.188-.504 1.92-.504 1.788,0 2.22,1.212 2.22,2.376v2.172zm-1.032-1.573c-1.152-.024-2.46.18-2.46,1.308 0,.696.456,1.008.984,1.008 .768,0 1.26-.479 1.428-.972 .036-.107.048-.228.048-.336v-1.008z"></path>
	<path d="m44.052,373.537c-.276.132-.888.336-1.668.336-1.752,0-2.892-1.188-2.892-2.976s1.224-3.097 3.12-3.097c.624,0 1.176.156 1.464.313l-.24.804c-.252-.132-.648-.275-1.224-.275-1.332,0-2.052.995-2.052,2.208 0,1.344.864,2.172 2.016,2.172 .6,0 .996-.145 1.296-.276l.18.791z"></path>
	<path d="m49.392,372.35c0,.504.024.995.084,1.392h-.948l-.096-.732h-.036c-.312.456-.948.864-1.776.864-1.176,0-1.776-.828-1.776-1.668 0-1.404 1.248-2.172 3.492-2.16v-.12c0-.479-.132-1.355-1.32-1.344-.552,0-1.116.156-1.524.432l-.24-.708c.48-.3 1.188-.504 1.92-.504 1.788,0 2.22,1.212 2.22,2.376v2.172zm-1.033-1.573c-1.152-.024-2.46.18-2.46,1.308 0,.696.456,1.008.984,1.008 .768,0 1.26-.479 1.428-.972 .036-.107.048-.228.048-.336v-1.008z"></path>
	<path d="m51.336,367.934 1.14,3.252c.192.54.348,1.02.468,1.5h.036c.132-.48.3-.96.492-1.5l1.128-3.252h1.104l-2.28,5.808h-1.008l-2.208-5.808h1.128z"></path>
	<path d="m60.624,372.35c0,.504.024.995.084,1.392h-.948l-.096-.732h-.036c-.312.456-.948.864-1.776.864-1.176,0-1.776-.828-1.776-1.668 0-1.404 1.248-2.172 3.492-2.16v-.12c0-.479-.132-1.355-1.32-1.344-.552,0-1.116.156-1.524.432l-.24-.708c.48-.3 1.188-.504 1.92-.504 1.788,0 2.22,1.212 2.22,2.376v2.172zm-1.032-1.573c-1.152-.024-2.46.18-2.46,1.308 0,.696.456,1.008.984,1.008 .768,0 1.26-.479 1.428-.972 .036-.107.048-.228.048-.336v-1.008z"></path>

<path d="m74.396,366.341 37-23" fill="none" stroke="#000"></path>

	<path d="m343.266,248.797-.84,2.544h-1.08l2.748-8.088h1.26l2.76,8.088h-1.115l-.864-2.544h-2.869zm2.652-.817-.805-2.328c-.168-.528-.287-1.008-.407-1.476h-.036c-.107.468-.24.972-.396,1.464l-.791,2.34h2.435z"></path>
	<path d="m349.23,247.104c0-.611-.013-1.092-.048-1.572h.936l.061.948h.023c.289-.54.961-1.08 1.92-1.08 .805,0 2.053.48 2.053,2.472v3.468h-1.057v-3.348c0-.937-.348-1.729-1.344-1.729-.684,0-1.225.492-1.416,1.08-.048.132-.072.324-.072.492v3.504h-1.056v-4.235z"></path>
	<path d="m357.114,244.141v1.392h1.513v.804h-1.513v3.132c0,.72.205,1.128.793,1.128 .287,0 .455-.023.611-.072l.049.805c-.205.071-.528.144-.937.144-.492,0-.888-.168-1.14-.444-.289-.323-.408-.84-.408-1.523v-3.168h-.9v-.804h.9v-1.068l1.032-.326z"></path>
	<path d="m359.827,247.345c0-.684-.013-1.272-.049-1.812h.924l.049,1.14h.035c.264-.78.912-1.272 1.62-1.272 .108,0 .192.012.288.036v.984c-.119-.012-.229-.024-.372-.024-.743,0-1.272.564-1.416,1.345-.024.155-.036.323-.036.504v3.096h-1.056l.013-3.997z"></path>
	<path d="m364.29,244.465c-.396,0-.66-.312-.66-.684s.276-.672.684-.672 .673.3.673.672-.265.684-.685.684h-.012zm-.504,6.876v-5.808h1.057v5.808h-1.057z"></path>
	<path d="m368.958,251.473c-1.56,0-2.784-1.151-2.784-2.988 0-1.943 1.284-3.083 2.88-3.083 1.668,0 2.796,1.211 2.796,2.976 0,2.16-1.5,3.096-2.88,3.096h-.012zm.037-.792c1.008,0 1.764-.948 1.764-2.268 0-.984-.492-2.22-1.74-2.22-1.236,0-1.775,1.152-1.775,2.256 0,1.271.72,2.231 1.74,2.231h.011z"></path>
	<path d="m373.483,245.533 1.139,3.252c.193.54.349,1.02.469,1.5h.036c.132-.48.3-.96.491-1.5l1.129-3.252h1.104l-2.279,5.808h-1.009l-2.208-5.808h1.128z"></path>
	<path d="m379.315,248.617c.023,1.428.924,2.016 1.979,2.016 .756,0 1.224-.132 1.608-.288l.191.744c-.372.168-1.02.372-1.943.372-1.776,0-2.856-1.188-2.856-2.928 0-1.765 1.044-3.145 2.735-3.145 1.896,0 2.389,1.668 2.389,2.736 0,.216-.012.384-.036.504l-4.067-.011zm3.084-.757c.012-.659-.276-1.716-1.453-1.716-1.08,0-1.535.984-1.619,1.716h3.072z"></path>
	<path d="m384.726,247.104c0-.611-.013-1.092-.048-1.572h.936l.061.948h.023c.289-.54.961-1.08 1.92-1.08 .805,0 2.053.48 2.053,2.472v3.468h-1.057v-3.348c0-.937-.348-1.729-1.344-1.729-.684,0-1.225.492-1.416,1.08-.048.132-.072.324-.072.492v3.504h-1.056v-4.235z"></path>
	<path d="m392.61,244.141v1.392h1.512v.804h-1.512v3.132c0,.72.204,1.128.792,1.128 .288,0 .456-.023.612-.072l.048.805c-.204.071-.528.144-.937.144-.492,0-.888-.168-1.14-.444-.288-.323-.407-.84-.407-1.523v-3.168h-.9v-.804h.9v-1.068l1.032-.326z"></path>
	<path d="m395.813,244.465c-.396,0-.659-.312-.659-.684s.276-.672.684-.672 .673.3.673.672-.265.684-.685.684h-.013zm-.504,6.876v-5.808h1.057v5.808h-1.057z"></path>
	<path d="m402.258,251.137c-.276.132-.889.336-1.668.336-1.752,0-2.893-1.188-2.893-2.976s1.225-3.096 3.12-3.096c.624,0 1.176.156 1.464.312l-.24.804c-.252-.132-.648-.276-1.224-.276-1.332,0-2.052.996-2.052,2.208 0,1.344.863,2.172 2.016,2.172 .6,0 .996-.145 1.296-.276l.181.792z"></path>
	<path d="m408.354,249.757c0,.6.012,1.128.048,1.584h-.937l-.06-.948h-.024c-.264.468-.888,1.08-1.92,1.08-.912,0-2.004-.516-2.004-2.544v-3.396h1.057v3.204c0,1.104.348,1.86 1.295,1.86 .709,0 1.201-.492 1.393-.972 .061-.145.096-.336.096-.54v-3.552h1.057v4.224z"></path>
	<path d="m410.106,242.821h1.056v8.52h-1.056v-8.52z"></path>
	<path d="m417.006,249.949c0,.504.023.995.084,1.392h-.949l-.096-.732h-.035c-.313.456-.949.864-1.777.864-1.176,0-1.775-.828-1.775-1.668 0-1.404 1.248-2.172 3.492-2.16v-.12c0-.479-.133-1.355-1.32-1.344-.552,0-1.115.156-1.523.432l-.24-.708c.48-.3 1.188-.504 1.92-.504 1.788,0 2.221,1.211 2.221,2.375v2.173zm-1.033-1.572c-1.151-.024-2.459.18-2.459,1.308 0,.696.455,1.008.983,1.008 .769,0 1.261-.479 1.429-.972 .035-.107.047-.228.047-.336v-1.008z"></path>
	<path d="m418.709,247.345c0-.684-.012-1.272-.049-1.812h.925l.048,1.14h.036c.264-.78.912-1.272 1.62-1.272 .107,0 .191.012.287.036v.984c-.119-.012-.228-.024-.371-.024-.744,0-1.272.564-1.416,1.345-.024.155-.036.323-.036.504v3.096h-1.056l.012-3.997z"></path>
	<path d="m369.756,259.934 1.14,3.252c.192.54.349,1.02.468,1.5h.037c.131-.48.299-.96.491-1.5l1.128-3.252h1.104l-2.279,5.808h-1.008l-2.209-5.808h1.128z"></path>
	<path d="m379.044,264.35c0,.504.024.995.084,1.392h-.948l-.096-.732h-.036c-.312.456-.948.864-1.776.864-1.176,0-1.775-.828-1.775-1.668 0-1.404 1.248-2.172 3.492-2.16v-.12c0-.479-.133-1.355-1.32-1.344-.553,0-1.116.156-1.524.432l-.239-.708c.479-.3 1.188-.504 1.92-.504 1.787,0 2.22,1.212 2.22,2.376v2.172zm-1.032-1.573c-1.152-.024-2.46.18-2.46,1.308 0,.696.456,1.008.983,1.008 .769,0 1.261-.479 1.429-.972 .036-.107.048-.228.048-.336v-1.008z"></path>
	<path d="m380.736,257.221h1.056v8.521h-1.056v-8.521z"></path>
	<path d="m383.952,259.934 1.141,3.252c.191.54.348,1.02.468,1.5h.036c.132-.48.3-.96.492-1.5l1.127-3.252h1.104l-2.28,5.808h-1.008l-2.208-5.808h1.128z"></path>
	<path d="m389.784,263.018c.024,1.428.924,2.016 1.98,2.016 .756,0 1.225-.132 1.607-.288l.192.744c-.372.168-1.021.372-1.944.372-1.775,0-2.855-1.188-2.855-2.928 0-1.765 1.044-3.145 2.736-3.145 1.896,0 2.388,1.668 2.388,2.736 0,.216-.013.384-.036.504l-4.068-.011zm3.084-.757c.013-.659-.275-1.716-1.451-1.716-1.08,0-1.537.984-1.621,1.716h3.072z"></path>

<path d="m165.396,254.341 171-6-74.328-29.086" fill="none" stroke="#000"></path>
<path d="m605.396,236.341-178,8 68,18" fill="none" stroke="#000"></path>

	<path d="m329.836,206.36c.504-.096 1.164-.168 2.004-.168 1.032,0 1.788.24 2.268.673 .444.384.72.972.72,1.691 0,.732-.216,1.309-.636,1.729-.552.588-1.452.888-2.472.888-.312,0-.6-.012-.84-.072v3.24h-1.044v-7.981zm1.044,3.889c.228.06.528.084.864.084 1.272,0 2.028-.624 2.028-1.716 0-1.08-.756-1.597-1.908-1.597-.456,0-.804.048-.984.084v3.145z"></path>
	<path d="m340.864,212.757c0,.6.012,1.128.049,1.584h-.937l-.06-.948h-.024c-.265.468-.888,1.08-1.92,1.08-.912,0-2.005-.516-2.005-2.544v-3.396h1.057v3.203c0,1.104.348,1.86 1.296,1.86 .708,0 1.2-.492 1.392-.972 .061-.145.097-.336.097-.54v-3.552h1.056v4.225z"></path>
	<path d="m342.616,205.82h1.057v8.521h-1.057v-8.521z"></path>
	<path d="m345.424,210.104c0-.611-.024-1.092-.049-1.571h.924l.049.936h.035c.324-.552.865-1.068 1.836-1.068 .781,0 1.381.48 1.633,1.164h.023c.18-.336.42-.575.66-.756 .348-.264.721-.408 1.272-.408 .78,0 1.92.504 1.92,2.521v3.42h-1.032v-3.288c0-1.128-.42-1.788-1.26-1.788-.612,0-1.068.444-1.26.948-.049.156-.084.348-.084.528v3.6h-1.032v-3.48c0-.936-.408-1.596-1.212-1.596-.648,0-1.141.528-1.309,1.056-.06.156-.084.337-.084.517v3.504h-1.031v-4.239z"></path>
	<path d="m357.795,214.473c-1.56,0-2.783-1.151-2.783-2.988 0-1.943 1.283-3.084 2.879-3.084 1.668,0 2.797,1.212 2.797,2.977 0,2.16-1.5,3.096-2.881,3.096h-.012zm.037-.792c1.009,0 1.765-.948 1.765-2.268 0-.984-.492-2.221-1.74-2.221-1.236,0-1.776,1.152-1.776,2.257 0,1.271.72,2.231 1.74,2.231h.011z"></path>
	<path d="m362.02,210.104c0-.611-.013-1.092-.049-1.571h.937l.06.947h.024c.288-.54.96-1.08 1.92-1.08 .804,0 2.052.48 2.052,2.473v3.468h-1.056v-3.348c0-.937-.349-1.729-1.345-1.729-.684,0-1.224.492-1.416,1.08-.047.132-.071.324-.071.492v3.504h-1.056v-4.236z"></path>
	<path d="m372.772,212.949c0,.504.023.995.084,1.392h-.948l-.097-.732h-.035c-.313.456-.948.864-1.776.864-1.176,0-1.776-.828-1.776-1.668 0-1.404 1.248-2.172 3.492-2.16v-.12c0-.479-.132-1.355-1.32-1.344-.551,0-1.115.156-1.523.432l-.24-.708c.48-.3 1.188-.504 1.92-.504 1.789,0 2.221,1.212 2.221,2.376v2.172zm-1.032-1.572c-1.151-.024-2.46.18-2.46,1.308 0,.696.456,1.008.984,1.008 .768,0 1.26-.479 1.428-.972 .035-.107.048-.228.048-.336v-1.008z"></path>
	<path d="m374.476,210.345c0-.684-.013-1.271-.048-1.812h.924l.048,1.14h.036c.264-.78.912-1.272 1.62-1.272 .108,0 .192.013.288.036v.984c-.12-.012-.229-.024-.373-.024-.743,0-1.271.564-1.416,1.345-.023.155-.035.323-.035.504v3.096h-1.057l.013-3.997z"></path>
	<path d="m379.059,208.533 1.261,3.432c.144.384.288.84.384,1.188h.024c.108-.348.228-.792.372-1.212l1.152-3.407h1.115l-1.584,4.14c-.756,1.992-1.271,3.012-1.992,3.648-.527.443-1.031.623-1.296.672l-.264-.889c.264-.071.612-.239.924-.516 .288-.229.636-.636.888-1.176 .049-.108.084-.181.084-.252 0-.061-.023-.145-.084-.265l-2.136-5.363h1.152z"></path>
	<path d="m387.28,208.533 1.14,3.252c.192.54.349,1.02.468,1.5h.037c.131-.48.299-.96.491-1.5l1.128-3.252h1.104l-2.279,5.808h-1.008l-2.209-5.808h1.128z"></path>
	<path d="m393.112,211.617c.023,1.428.924,2.016 1.979,2.016 .757,0 1.225-.132 1.608-.288l.192.744c-.372.168-1.021.372-1.944.372-1.775,0-2.855-1.188-2.855-2.928 0-1.765 1.043-3.145 2.735-3.145 1.896,0 2.388,1.668 2.388,2.736 0,.216-.012.384-.035.504l-4.068-.011zm3.084-.757c.012-.659-.276-1.716-1.452-1.716-1.08,0-1.536.984-1.62,1.716h3.072z"></path>
	<path d="m399.027,207.465c-.396,0-.66-.313-.66-.685s.276-.672.685-.672 .672.301.672.672-.265.685-.685.685h-.012zm-.504,6.876v-5.808h1.056v5.808h-1.056z"></path>
	<path d="m401.331,210.104c0-.611-.012-1.092-.048-1.571h.936l.061.947h.023c.288-.54.96-1.08 1.92-1.08 .805,0 2.053.48 2.053,2.473v3.468h-1.057v-3.348c0-.937-.348-1.729-1.344-1.729-.684,0-1.224.492-1.416,1.08-.048.132-.072.324-.072.492v3.504h-1.056v-4.236z"></path>
	<path d="m407.847,213.272c.323.192.876.408 1.403.408 .756,0 1.116-.372 1.116-.864 0-.504-.3-.779-1.068-1.067-1.056-.384-1.548-.948-1.548-1.645 0-.936.769-1.704 2.004-1.704 .588,0 1.104.156 1.416.36l-.252.756c-.228-.132-.647-.336-1.188-.336-.624,0-.96.36-.96.792 0,.492.336.708 1.092.996 .996.372 1.524.876 1.524,1.752 0,1.032-.805,1.752-2.16,1.752-.637,0-1.225-.168-1.632-.408l.253-.792z"></path>

<path d="m276.396,165.341 48,43-34-19" fill="none" stroke="#000"></path>
<path d="m445.396,211.341-29,2 38-25" fill="none" stroke="#000"></path>

	<path d="m357.038,123.373c.527-.108 1.295-.181 2.004-.181 1.115,0 1.848.217 2.352.673 .396.348.636.899.636,1.535 0,1.057-.684,1.765-1.524,2.053v.036c.613.216.984.792 1.188,1.632 .265,1.128.456,1.907.612,2.22h-1.08c-.132-.228-.313-.924-.528-1.932-.239-1.116-.684-1.536-1.632-1.572h-.984v3.504h-1.043v-7.968zm1.043,3.672h1.068c1.116,0 1.824-.612 1.824-1.536 0-1.044-.756-1.5-1.86-1.5-.504,0-.852.048-1.032.096v2.94z"></path>
	<path d="m364.081,124.465c-.396,0-.659-.313-.659-.685s.276-.672.684-.672 .673.301.673.672-.265.685-.685.685h-.013zm-.504,6.876v-5.808h1.057v5.808h-1.057z"></path>
	<path d="m371.354,130.489c0,1.344-.277,2.147-.828,2.664-.576.516-1.393.695-2.125.695-.695,0-1.463-.168-1.932-.479l.264-.816c.385.252.984.468 1.705.468 1.079,0 1.871-.563 1.871-2.04v-.636h-.023c-.313.54-.948.972-1.848.972-1.441,0-2.473-1.224-2.473-2.844 0-1.968 1.284-3.072 2.628-3.072 1.008,0 1.548.517 1.812.996h.024l.036-.863h.936c-.035.407-.047.876-.047,1.584v3.371zm-1.057-2.676c0-.168-.012-.323-.061-.468-.191-.624-.695-1.128-1.476-1.128-1.008,0-1.728.852-1.728,2.208 0,1.128.588,2.088 1.716,2.088 .659,0 1.247-.408 1.464-1.092 .061-.168.084-.372.084-.564v-1.044z"></path>
	<path d="m373.093,122.82h1.056v3.624h.024c.168-.3.433-.575.756-.743 .312-.192.685-.301 1.08-.301 .78,0 2.028.48 2.028,2.484v3.456h-1.057v-3.336c0-.948-.348-1.729-1.344-1.729-.684,0-1.212.48-1.416,1.057-.061.144-.072.3-.072.504v3.504h-1.056v-8.52z"></path>
	<path d="m380.977,124.141v1.393h1.512v.804h-1.512v3.132c0,.72.204,1.128.792,1.128 .288,0 .456-.023.612-.072l.048.805c-.204.071-.528.144-.937.144-.492,0-.888-.168-1.14-.444-.288-.323-.407-.84-.407-1.523v-3.168h-.9v-.804h.9v-1.068l1.032-.327z"></path>
	<path d="m390.313,129.949c0,.504.023.995.084,1.392h-.948l-.097-.732h-.035c-.313.456-.948.864-1.776.864-1.176,0-1.776-.828-1.776-1.668 0-1.404 1.248-2.172 3.492-2.16v-.12c0-.479-.132-1.355-1.32-1.344-.551,0-1.115.156-1.523.432l-.24-.708c.48-.3 1.188-.504 1.92-.504 1.789,0 2.221,1.212 2.221,2.376v2.172zm-1.032-1.572c-1.151-.024-2.46.18-2.46,1.308 0,.696.456,1.008.984,1.008 .768,0 1.26-.479 1.428-.972 .035-.107.048-.228.048-.336v-1.008z"></path>
	<path d="m392.004,127.104c0-.611-.012-1.092-.047-1.571h.936l.061.947h.023c.288-.54.96-1.08 1.92-1.08 .804,0 2.052.48 2.052,2.473v3.468h-1.056v-3.348c0-.937-.348-1.729-1.344-1.729-.685,0-1.225.492-1.416,1.08-.049.132-.072.324-.072.492v3.504h-1.057v-4.236z"></path>
	<path d="m403.681,122.82v7.021c0,.516.012,1.104.048,1.5h-.947l-.049-1.008h-.023c-.324.647-1.021,1.14-1.969,1.14-1.404,0-2.496-1.188-2.496-2.952-.012-1.943 1.2-3.12 2.604-3.12 .899,0 1.5.42 1.752.876h.024v-3.456h1.056zm-1.056,5.076c0-.144-.012-.312-.049-.456-.156-.659-.731-1.212-1.523-1.212-1.092,0-1.74.96-1.74,2.232 0,1.188.588,2.16 1.717,2.16 .707,0 1.355-.48 1.547-1.261 .037-.144.049-.287.049-.455v-1.008z"></path>
	<path d="m407.977,122.82h1.057v8.521h-1.057v-8.521z"></path>
	<path d="m411.385,128.617c.023,1.428.924,2.016 1.98,2.016 .756,0 1.224-.132 1.607-.288l.191.744c-.371.168-1.02.372-1.943.372-1.775,0-2.855-1.188-2.855-2.928 0-1.765 1.043-3.145 2.735-3.145 1.896,0 2.388,1.668 2.388,2.736 0,.216-.012.384-.035.504l-4.068-.011zm3.084-.757c.012-.659-.275-1.716-1.452-1.716-1.08,0-1.536.984-1.62,1.716h3.072z"></path>
	<path d="m416.893,131.341v-5.004h-.805v-.804h.805v-.276c0-.816.191-1.561.684-2.028 .396-.384.924-.54 1.404-.54 .384,0 .695.084.9.168l-.133.816c-.168-.072-.371-.132-.684-.132-.889,0-1.128.792-1.128,1.68v.313h1.403v.804h-1.392v5.004h-1.054z"></path>
	<path d="m421.705,124.141v1.393h1.513v.804h-1.513v3.132c0,.72.204,1.128.792,1.128 .288,0 .456-.023.612-.072l.048.805c-.204.071-.528.144-.936.144-.492,0-.889-.168-1.141-.444-.288-.323-.408-.84-.408-1.523v-3.168h-.9v-.804h.9v-1.068l1.033-.327z"></path>
	<path d="m428.292,128.797-.841,2.544h-1.08l2.748-8.088h1.261l2.76,8.088h-1.116l-.863-2.544h-2.869zm2.652-.817-.804-2.328c-.168-.527-.288-1.008-.407-1.476h-.037c-.107.468-.24.972-.396,1.464l-.792,2.34h2.436z"></path>
	<path d="m435.444,124.141v1.393h1.513v.804h-1.513v3.132c0,.72.205,1.128.793,1.128 .287,0 .455-.023.611-.072l.049.805c-.205.071-.528.144-.937.144-.492,0-.888-.168-1.14-.444-.289-.323-.408-.84-.408-1.523v-3.168h-.9v-.804h.9v-1.068l1.032-.327z"></path>
	<path d="m438.157,127.345c0-.684-.013-1.271-.049-1.812h.924l.049,1.14h.035c.264-.78.912-1.272 1.62-1.272 .108,0 .192.013.288.036v.984c-.119-.012-.229-.024-.372-.024-.743,0-1.272.564-1.416,1.345-.024.155-.036.323-.036.504v3.096h-1.056l.013-3.997z"></path>
	<path d="m442.62,124.465c-.396,0-.66-.313-.66-.685s.276-.672.684-.672 .673.301.673.672-.265.685-.685.685h-.012zm-.504,6.876v-5.808h1.057v5.808h-1.057z"></path>
	<path d="m449.784,129.757c0,.6.012,1.128.049,1.584h-.937l-.06-.948h-.024c-.265.468-.888,1.08-1.92,1.08-.912,0-2.005-.516-2.005-2.544v-3.396h1.057v3.203c0,1.104.348,1.86 1.296,1.86 .708,0 1.2-.492 1.392-.972 .061-.145.097-.336.097-.54v-3.552h1.056v4.225z"></path>
	<path d="m451.536,127.104c0-.611-.023-1.092-.048-1.571h.924l.048.936h.036c.324-.552.864-1.068 1.836-1.068 .78,0 1.38.48 1.632,1.164h.024c.18-.336.42-.575.66-.756 .348-.264.72-.408 1.272-.408 .779,0 1.919.504 1.919,2.521v3.42h-1.032v-3.288c0-1.128-.42-1.788-1.26-1.788-.611,0-1.068.444-1.26.948-.048.156-.084.348-.084.528v3.6h-1.031v-3.48c0-.936-.408-1.596-1.213-1.596-.648,0-1.14.528-1.308,1.056-.06.156-.084.337-.084.517v3.504h-1.032v-4.239z"></path>

<path d="m608.396,208.341-168-73 48,89" fill="none" stroke="#000"></path>

	<path d="m56.782,106.797-.84,2.544h-1.08l2.748-8.088h1.26l2.76,8.088h-1.116l-.864-2.544h-2.868zm2.652-.817-.804-2.328c-.168-.527-.288-1.008-.408-1.476h-.036c-.108.468-.24.972-.396,1.464l-.792,2.34h2.436z"></path>
	<path d="m62.746,105.104c0-.611-.012-1.092-.048-1.571h.936l.06.947h.024c.288-.54.96-1.08 1.92-1.08 .804,0 2.052.48 2.052,2.473v3.468h-1.056v-3.348c0-.937-.348-1.729-1.344-1.729-.684,0-1.224.492-1.416,1.08-.048.132-.072.324-.072.492v3.504h-1.056v-4.236z"></path>
	<path d="m70.63,102.141v1.393h1.512v.804h-1.512v3.132c0,.72.204,1.128.792,1.128 .288,0 .456-.023.612-.072l.048.805c-.204.071-.528.144-.936.144-.492,0-.888-.168-1.14-.444-.288-.323-.408-.84-.408-1.523v-3.168h-.9v-.804h.9v-1.068l1.032-.327z"></path>
	<path d="m73.858,106.617c.024,1.428.924,2.016 1.98,2.016 .756,0 1.224-.132 1.608-.288l.192.744c-.372.168-1.02.372-1.944.372-1.776,0-2.856-1.188-2.856-2.928 0-1.765 1.044-3.145 2.736-3.145 1.896,0 2.388,1.668 2.388,2.736 0,.216-.012.384-.036.504l-4.068-.011zm3.084-.757c.012-.659-.276-1.716-1.452-1.716-1.08,0-1.536.984-1.62,1.716h3.072z"></path>
	<path d="m79.282,105.345c0-.684-.012-1.271-.048-1.812h.924l.048,1.14h.036c.264-.78.912-1.272 1.62-1.272 .108,0 .192.013.288.036v.984c-.12-.012-.228-.024-.372-.024-.744,0-1.272.564-1.416,1.345-.024.155-.036.323-.036.504v3.096h-1.056l.012-3.997z"></path>
	<path d="m83.745,102.465c-.396,0-.66-.313-.66-.685s.276-.672.684-.672 .672.301.672.672-.264.685-.684.685h-.012zm-.504,6.876v-5.808h1.056v5.808h-1.056z"></path>
	<path d="m88.414,109.473c-1.56,0-2.784-1.151-2.784-2.988 0-1.943 1.284-3.084 2.88-3.084 1.668,0 2.796,1.212 2.796,2.977 0,2.16-1.5,3.096-2.88,3.096h-.012zm.035-.792c1.008,0 1.764-.948 1.764-2.268 0-.984-.492-2.221-1.74-2.221-1.236,0-1.776,1.152-1.776,2.257 0,1.271.72,2.231 1.74,2.231h.012z"></path>
	<path d="m92.649,105.345c0-.684-.012-1.271-.048-1.812h.924l.048,1.14h.036c.264-.78.912-1.272 1.62-1.272 .108,0 .192.013.288.036v.984c-.12-.012-.228-.024-.372-.024-.744,0-1.272.564-1.416,1.345-.024.155-.036.323-.036.504v3.096h-1.056l.012-3.997z"></path>
	<path d="m53.158,117.934 1.14,3.252c.192.54.348,1.02.468,1.5h.036c.132-.48.3-.96.492-1.5l1.128-3.252h1.104l-2.28,5.808h-1.008l-2.208-5.808h1.128z"></path>
	<path d="m58.99,121.018c.024,1.428.924,2.016 1.98,2.016 .756,0 1.224-.132 1.608-.288l.192.744c-.372.168-1.02.372-1.944.372-1.776,0-2.856-1.188-2.856-2.928 0-1.765 1.044-3.145 2.736-3.145 1.896,0 2.388,1.668 2.388,2.736 0,.216-.012.384-.036.504l-4.068-.011zm3.084-.757c.012-.659-.276-1.716-1.452-1.716-1.08,0-1.536.984-1.62,1.716h3.072z"></path>
	<path d="m64.402,119.505c0-.611-.012-1.092-.048-1.571h.936l.06.947h.024c.288-.54.96-1.08 1.92-1.08 .804,0 2.052.48 2.052,2.473v3.468h-1.056v-3.348c0-.937-.348-1.729-1.344-1.729-.684,0-1.224.492-1.416,1.08-.048.132-.072.324-.072.492v3.504h-1.056v-4.236z"></path>
	<path d="m75.154,122.35c0,.504.024.995.084,1.392h-.948l-.096-.732h-.036c-.312.456-.948.864-1.776.864-1.176,0-1.776-.828-1.776-1.668 0-1.404 1.248-2.172 3.492-2.16v-.12c0-.479-.132-1.355-1.32-1.344-.552,0-1.116.156-1.524.432l-.24-.708c.48-.3 1.188-.504 1.92-.504 1.788,0 2.22,1.212 2.22,2.376v2.172zm-1.032-1.573c-1.152-.024-2.46.18-2.46,1.308 0,.696.456,1.008.984,1.008 .768,0 1.26-.479 1.428-.972 .036-.107.048-.228.048-.336v-1.008z"></path>
	<path d="m83.53,123.537c-.276.132-.888.336-1.668.336-1.752,0-2.892-1.188-2.892-2.976s1.224-3.097 3.12-3.097c.624,0 1.176.156 1.464.313l-.24.804c-.252-.132-.648-.275-1.224-.275-1.332,0-2.052.995-2.052,2.208 0,1.344.864,2.172 2.016,2.172 .6,0 .996-.145 1.296-.276l.18.791z"></path>
	<path d="m88.87,122.35c0,.504.024.995.084,1.392h-.948l-.096-.732h-.036c-.312.456-.948.864-1.776.864-1.176,0-1.776-.828-1.776-1.668 0-1.404 1.248-2.172 3.492-2.16v-.12c0-.479-.132-1.355-1.32-1.344-.552,0-1.116.156-1.524.432l-.24-.708c.48-.3 1.188-.504 1.92-.504 1.788,0 2.22,1.212 2.22,2.376v2.172zm-1.032-1.573c-1.152-.024-2.46.18-2.46,1.308 0,.696.456,1.008.984,1.008 .768,0 1.26-.479 1.428-.972 .036-.107.048-.228.048-.336v-1.008z"></path>
	<path d="m90.814,117.934 1.14,3.252c.192.54.348,1.02.468,1.5h.036c.132-.48.3-.96.492-1.5l1.128-3.252h1.104l-2.28,5.808h-1.008l-2.208-5.808h1.128z"></path>
	<path d="m100.103,122.35c0,.504.024.995.084,1.392h-.948l-.096-.732h-.036c-.312.456-.948.864-1.776.864-1.176,0-1.776-.828-1.776-1.668 0-1.404 1.248-2.172 3.492-2.16v-.12c0-.479-.132-1.355-1.32-1.344-.552,0-1.116.156-1.524.432l-.24-.708c.48-.3 1.188-.504 1.92-.504 1.788,0 2.22,1.212 2.22,2.376v2.172zm-1.033-1.573c-1.152-.024-2.46.18-2.46,1.308 0,.696.456,1.008.984,1.008 .768,0 1.26-.479 1.428-.972 .036-.107.048-.228.048-.336v-1.008z"></path>

<path d="m101.396,112.341 29,23" fill="none" stroke="#000"></path>

	<path d="m339.887,68.36c.504-.096 1.164-.168 2.004-.168 1.031,0 1.787.24 2.268.673 .443.384.72.972.72,1.691 0,.732-.216,1.309-.636,1.729-.553.588-1.452.888-2.473.888-.312,0-.6-.012-.84-.072v3.24h-1.043v-7.981zm1.043,3.889c.229.06.528.084.864.084 1.272,0 2.028-.624 2.028-1.716 0-1.08-.756-1.597-1.908-1.597-.456,0-.804.048-.984.084v3.145z"></path>
	<path d="m350.915,74.757c0,.6.012,1.128.048,1.584h-.937l-.06-.948h-.024c-.264.468-.888,1.08-1.92,1.08-.912,0-2.004-.516-2.004-2.544v-3.396h1.057v3.203c0,1.104.348,1.86 1.295,1.86 .709,0 1.201-.492 1.393-.972 .061-.145.096-.336.096-.54v-3.552h1.057v4.225z"></path>
	<path d="m352.667,67.82h1.056v8.521h-1.056v-8.521z"></path>
	<path d="m355.474,72.104c0-.611-.024-1.092-.048-1.571h.924l.048.936h.036c.324-.552.864-1.068 1.836-1.068 .78,0 1.381.48 1.633,1.164h.023c.18-.336.42-.575.66-.756 .348-.264.72-.408 1.271-.408 .78,0 1.92.504 1.92,2.521v3.42h-1.031v-3.288c0-1.128-.42-1.788-1.26-1.788-.613,0-1.068.444-1.261.948-.048.156-.084.348-.084.528v3.6h-1.032v-3.48c0-.936-.408-1.596-1.212-1.596-.647,0-1.14.528-1.308,1.056-.061.156-.084.337-.084.517v3.504h-1.032v-4.239z"></path>
	<path d="m367.846,76.473c-1.561,0-2.784-1.151-2.784-2.988 0-1.943 1.284-3.084 2.88-3.084 1.668,0 2.796,1.212 2.796,2.977 0,2.16-1.5,3.096-2.88,3.096h-.012zm.035-.792c1.009,0 1.765-.948 1.765-2.268 0-.984-.492-2.221-1.74-2.221-1.235,0-1.776,1.152-1.776,2.257 0,1.271.721,2.231 1.74,2.231h.011z"></path>
	<path d="m372.07,72.104c0-.611-.013-1.092-.048-1.571h.936l.061.947h.023c.289-.54.961-1.08 1.92-1.08 .805,0 2.053.48 2.053,2.473v3.468h-1.057v-3.348c0-.937-.348-1.729-1.344-1.729-.684,0-1.225.492-1.416,1.08-.048.132-.072.324-.072.492v3.504h-1.056v-4.236z"></path>
	<path d="m382.822,74.949c0,.504.024.995.084,1.392h-.948l-.096-.732h-.036c-.312.456-.948.864-1.776.864-1.176,0-1.775-.828-1.775-1.668 0-1.404 1.248-2.172 3.492-2.16v-.12c0-.479-.133-1.355-1.32-1.344-.553,0-1.116.156-1.524.432l-.239-.708c.479-.3 1.188-.504 1.92-.504 1.787,0 2.22,1.212 2.22,2.376v2.172zm-1.032-1.572c-1.152-.024-2.46.18-2.46,1.308 0,.696.456,1.008.983,1.008 .769,0 1.261-.479 1.429-.972 .036-.107.048-.228.048-.336v-1.008z"></path>
	<path d="m384.526,72.345c0-.684-.012-1.271-.049-1.812h.925l.048,1.14h.036c.264-.78.912-1.272 1.62-1.272 .107,0 .191.013.287.036v.984c-.119-.012-.228-.024-.371-.024-.744,0-1.272.564-1.416,1.345-.024.155-.036.323-.036.504v3.096h-1.056l.012-3.997z"></path>
	<path d="m389.11,70.533 1.26,3.432c.145.384.288.84.384,1.188h.024c.107-.348.229-.792.371-1.212l1.152-3.407h1.116l-1.584,4.14c-.756,1.992-1.272,3.012-1.991,3.648-.529.443-1.033.623-1.297.672l-.264-.889c.264-.071.611-.239.924-.516 .288-.229.637-.636.889-1.176 .047-.108.084-.181.084-.252 0-.061-.024-.145-.084-.265l-2.137-5.363h1.153z"></path>
	<path d="m401.014,74.949c0,.504.023.995.084,1.392h-.949l-.096-.732h-.035c-.313.456-.949.864-1.777.864-1.176,0-1.775-.828-1.775-1.668 0-1.404 1.248-2.172 3.492-2.16v-.12c0-.479-.133-1.355-1.32-1.344-.552,0-1.115.156-1.523.432l-.24-.708c.48-.3 1.188-.504 1.92-.504 1.788,0 2.221,1.212 2.221,2.376v2.172zm-1.033-1.572c-1.151-.024-2.459.18-2.459,1.308 0,.696.455,1.008.983,1.008 .769,0 1.261-.479 1.429-.972 .035-.107.047-.228.047-.336v-1.008z"></path>
	<path d="m402.717,72.345c0-.684-.012-1.271-.049-1.812h.925l.048,1.14h.036c.264-.78.912-1.272 1.62-1.272 .107,0 .191.013.287.036v.984c-.119-.012-.228-.024-.371-.024-.744,0-1.272.564-1.416,1.345-.024.155-.036.323-.036.504v3.096h-1.056l.012-3.997z"></path>
	<path d="m408.188,69.141v1.393h1.513v.804h-1.513v3.132c0,.72.205,1.128.793,1.128 .287,0 .456-.023.611-.072l.048.805c-.203.071-.527.144-.936.144-.492,0-.888-.168-1.14-.444-.289-.323-.408-.84-.408-1.523v-3.168h-.9v-.804h.9v-1.068l1.032-.327z"></path>
	<path d="m411.417,73.617c.024,1.428.925,2.016 1.98,2.016 .756,0 1.224-.132 1.608-.288l.191.744c-.372.168-1.02.372-1.943.372-1.776,0-2.856-1.188-2.856-2.928 0-1.765 1.044-3.145 2.736-3.145 1.896,0 2.388,1.668 2.388,2.736 0,.216-.012.384-.036.504l-4.068-.011zm3.083-.757c.013-.659-.275-1.716-1.451-1.716-1.08,0-1.536.984-1.62,1.716h3.071z"></path>
	<path d="m416.84,72.345c0-.684-.012-1.271-.048-1.812h.924l.049,1.14h.035c.265-.78.912-1.272 1.62-1.272 .108,0 .192.013.288.036v.984c-.12-.012-.228-.024-.372-.024-.744,0-1.271.564-1.416,1.345-.023.155-.036.323-.036.504v3.096h-1.056l.012-3.997z"></path>
	<path d="m421.423,70.533 1.26,3.432c.145.384.288.84.385,1.188h.023c.108-.348.229-.792.372-1.212l1.152-3.407h1.116l-1.584,4.14c-.757,1.992-1.272,3.012-1.992,3.648-.528.443-1.032.623-1.296.672l-.265-.889c.265-.071.612-.239.925-.516 .287-.229.636-.636.888-1.176 .048-.108.084-.181.084-.252 0-.061-.024-.145-.084-.265l-2.136-5.363h1.152z"></path>

<path d="m272.396,123.341 105-43 120,29" fill="none" stroke="#000"></path>

	<path d="m370.733,43.797-.841,2.544h-1.08l2.748-8.088h1.261l2.76,8.088h-1.116l-.864-2.544h-2.868zm2.651-.817-.804-2.328c-.168-.527-.289-1.008-.408-1.476h-.036c-.108.468-.24.972-.396,1.464l-.793,2.34h2.437z"></path>
	<path d="m378.964,46.473c-1.56,0-2.784-1.151-2.784-2.988 0-1.943 1.284-3.084 2.88-3.084 1.668,0 2.796,1.212 2.796,2.977 0,2.16-1.5,3.096-2.88,3.096h-.012zm.036-.792c1.008,0 1.764-.948 1.764-2.268 0-.984-.492-2.221-1.74-2.221-1.236,0-1.775,1.152-1.775,2.257 0,1.271.72,2.231 1.74,2.231h.011z"></path>
	<path d="m383.2,42.345c0-.684-.012-1.271-.048-1.812h.925l.047,1.14h.037c.264-.78.911-1.272 1.619-1.272 .108,0 .192.013.288.036v.984c-.12-.012-.228-.024-.372-.024-.744,0-1.271.564-1.416,1.345-.023.155-.035.323-.035.504v3.096h-1.057l.012-3.997z"></path>
	<path d="m388.672,39.141v1.393h1.512v.804h-1.512v3.132c0,.72.203,1.128.791,1.128 .289,0 .457-.023.613-.072l.047.805c-.203.071-.527.144-.936.144-.492,0-.889-.168-1.141-.444-.287-.323-.407-.84-.407-1.523v-3.168h-.9v-.804h.9v-1.068l1.033-.327z"></path>
	<path d="m395.463,44.949c0,.504.024.995.084,1.392h-.947l-.097-.732h-.036c-.312.456-.947.864-1.775.864-1.176,0-1.776-.828-1.776-1.668 0-1.404 1.248-2.172 3.492-2.16v-.12c0-.479-.132-1.355-1.32-1.344-.552,0-1.116.156-1.524.432l-.239-.708c.479-.3 1.188-.504 1.92-.504 1.788,0 2.22,1.212 2.22,2.376v2.172zm-1.031-1.572c-1.152-.024-2.461.18-2.461,1.308 0,.696.457,1.008.984,1.008 .768,0 1.26-.479 1.428-.972 .036-.107.049-.228.049-.336v-1.008z"></path>

<path d="m234.396,78.341 148-30 174,30" fill="none" stroke="#000"></path>

	<path d="m116.874,55.068c.468.301 1.14.528 1.86.528 1.068,0 1.692-.552 1.692-1.38 0-.744-.432-1.188-1.524-1.596-1.32-.48-2.136-1.177-2.136-2.305 0-1.26 1.044-2.195 2.616-2.195 .816,0 1.428.191 1.776.396l-.288.853c-.252-.156-.792-.385-1.524-.385-1.104,0-1.524.66-1.524,1.212 0,.757.492,1.129 1.608,1.561 1.368.54 2.052,1.188 2.052,2.376 0,1.248-.912,2.34-2.82,2.34-.78,0-1.632-.24-2.064-.528l.276-.877z"></path>
	<path d="m123.558,53.617c.024,1.428.924,2.016 1.98,2.016 .756,0 1.224-.132 1.608-.288l.192.744c-.372.168-1.02.372-1.944.372-1.776,0-2.856-1.188-2.856-2.928 0-1.765 1.044-3.145 2.736-3.145 1.896,0 2.388,1.668 2.388,2.736 0,.216-.012.384-.036.504l-4.068-.011zm3.084-.757c.012-.659-.276-1.716-1.452-1.716-1.08,0-1.536.984-1.62,1.716h3.072z"></path>
	<path d="m128.97,52.104c0-.611-.024-1.092-.048-1.571h.924l.048.936h.036c.324-.552.864-1.068 1.836-1.068 .78,0 1.38.48 1.632,1.164h.024c.18-.336.42-.575.66-.756 .348-.264.72-.408 1.272-.408 .78,0 1.92.504 1.92,2.521v3.42h-1.032v-3.288c0-1.128-.42-1.788-1.26-1.788-.612,0-1.068.444-1.26.948-.048.156-.084.348-.084.528v3.6h-1.032v-3.48c0-.936-.408-1.596-1.212-1.596-.648,0-1.14.528-1.308,1.056-.06.156-.084.337-.084.517v3.504h-1.032v-4.239z"></path>
	<path d="m139.481,49.465c-.396,0-.66-.313-.66-.685s.276-.672.684-.672 .672.301.672.672-.264.685-.684.685h-.012zm-.503,6.876v-5.808h1.056v5.808h-1.056z"></path>
	<path d="m141.786,47.82h1.056v8.521h-1.056v-8.521z"></path>
	<path d="m149.454,54.757c0,.6.012,1.128.048,1.584h-.936l-.06-.948h-.024c-.264.468-.888,1.08-1.92,1.08-.912,0-2.004-.516-2.004-2.544v-3.396h1.056v3.203c0,1.104.348,1.86 1.296,1.86 .708,0 1.2-.492 1.392-.972 .06-.145.096-.336.096-.54v-3.552h1.056v4.225z"></path>
	<path d="m151.206,52.104c0-.611-.012-1.092-.048-1.571h.936l.06.947h.024c.288-.54.96-1.08 1.92-1.08 .804,0 2.052.48 2.052,2.473v3.468h-1.056v-3.348c0-.937-.348-1.729-1.344-1.729-.684,0-1.224.492-1.416,1.08-.048.132-.072.324-.072.492v3.504h-1.056v-4.236z"></path>
	<path d="m161.958,54.949c0,.504.024.995.084,1.392h-.948l-.096-.732h-.036c-.312.456-.948.864-1.776.864-1.176,0-1.776-.828-1.776-1.668 0-1.404 1.248-2.172 3.492-2.16v-.12c0-.479-.132-1.355-1.32-1.344-.552,0-1.116.156-1.524.432l-.24-.708c.48-.3 1.188-.504 1.92-.504 1.788,0 2.22,1.212 2.22,2.376v2.172zm-1.033-1.572c-1.152-.024-2.46.18-2.46,1.308 0,.696.456,1.008.984,1.008 .768,0 1.26-.479 1.428-.972 .036-.107.048-.228.048-.336v-1.008z"></path>
	<path d="m163.662,52.345c0-.684-.012-1.271-.048-1.812h.924l.048,1.14h.036c.264-.78.912-1.272 1.62-1.272 .108,0 .192.013.288.036v.984c-.12-.012-.228-.024-.372-.024-.744,0-1.272.564-1.416,1.345-.024.155-.036.323-.036.504v3.096h-1.056l.012-3.997z"></path>
	<path d="m129.756,64.934 1.14,3.252c.192.54.348,1.02.468,1.5h.036c.132-.48.3-.96.492-1.5l1.128-3.252h1.104l-2.28,5.808h-1.008l-2.208-5.808h1.128z"></path>
	<path d="m139.044,69.35c0,.504.024.995.084,1.392h-.948l-.096-.732h-.036c-.312.456-.948.864-1.776.864-1.176,0-1.776-.828-1.776-1.668 0-1.404 1.248-2.172 3.492-2.16v-.12c0-.479-.132-1.355-1.32-1.344-.552,0-1.116.156-1.524.432l-.24-.708c.48-.3 1.188-.504 1.92-.504 1.788,0 2.22,1.212 2.22,2.376v2.172zm-1.032-1.573c-1.152-.024-2.46.18-2.46,1.308 0,.696.456,1.008.984,1.008 .768,0 1.26-.479 1.428-.972 .036-.107.048-.228.048-.336v-1.008z"></path>
	<path d="m140.736,62.221h1.056v8.521h-1.056v-8.521z"></path>
	<path d="m143.952,64.934 1.14,3.252c.192.54.348,1.02.468,1.5h.036c.132-.48.3-.96.492-1.5l1.128-3.252h1.104l-2.28,5.808h-1.008l-2.208-5.808h1.128z"></path>
	<path d="m149.784,68.018c.024,1.428.924,2.016 1.98,2.016 .756,0 1.224-.132 1.608-.288l.192.744c-.372.168-1.02.372-1.944.372-1.776,0-2.856-1.188-2.856-2.928 0-1.765 1.044-3.145 2.736-3.145 1.896,0 2.388,1.668 2.388,2.736 0,.216-.012.384-.036.504l-4.068-.011zm3.084-.757c.012-.659-.276-1.716-1.452-1.716-1.08,0-1.536.984-1.62,1.716h3.072z"></path>

<path d="m193.2,184.31-31.804-118.969 63.134,130.017" fill="none" stroke="#000"></path>
</svg>
